<mxfile host="Electron" agent="Mozilla/5.0 (Windows NT 10.0; Win64; x64) AppleWebKit/537.36 (KHTML, like Gecko) draw.io/28.0.4 Chrome/138.0.7204.97 Electron/37.2.1 Safari/537.36" version="28.0.4">
  <diagram name="Seite-1" id="pf57CqAo7abMCvjrt5Qm">
    <mxGraphModel dx="4910" dy="2002" grid="1" gridSize="10" guides="1" tooltips="1" connect="1" arrows="1" fold="1" page="1" pageScale="1" pageWidth="827" pageHeight="1169" math="0" shadow="0">
      <root>
        <mxCell id="0" />
        <mxCell id="1" parent="0" />
        <mxCell id="RcG9iWUMZUQm_ZydJTgz-4" value="&lt;div&gt;&lt;br/&gt;&lt;/div&gt;" style="rounded=0;whiteSpace=wrap;html=1;fillColor=#f5f5f5;strokeColor=#666666;strokeWidth=10;fontColor=#333333;" vertex="1" parent="1">
          <mxGeometry x="350" y="440" width="1080" height="1080" as="geometry" />
        </mxCell>
        <mxCell id="RcG9iWUMZUQm_ZydJTgz-5" value="&lt;div&gt;&lt;br/&gt;&lt;/div&gt;" style="rounded=0;whiteSpace=wrap;html=1;fillColor=#f5f5f5;strokeColor=#666666;strokeWidth=10;fontColor=#333333;" vertex="1" parent="1">
          <mxGeometry x="1570" y="440" width="1080" height="1080" as="geometry" />
        </mxCell>
        <mxCell id="RcG9iWUMZUQm_ZydJTgz-3" value="" style="shape=image;verticalLabelPosition=bottom;labelBackgroundColor=default;verticalAlign=top;aspect=fixed;imageAspect=0;image=data:image/png,iVBORw0KGgoAAAANSUhEUgAABFQAAARUCAYAAABY/UdQAAAAOnRFWHRTb2Z0d2FyZQBNYXRwbG90bGliIHZlcnNpb24zLjEwLjEsIGh0dHBzOi8vbWF0cGxvdGxpYi5vcmcvc2/+5QAAAAlwSFlzAAAuIwAALiMBeKU/dgAAJQJJREFUeJzt2jFuHMtiQNGmMRkjMpiAKzA3oEx7EJhPKue09+DEnvwzZeKI4B6UyYkjC28DE0xARsoeQIOwgWfgf9hzxdcz3dPnxFWFUnWBIi/q4vnz8DYswWZ7+NjH+zF3Ml/OcNp8n+Od3ztneFy+z8c5w2nzfT7OGU6b7/NxznDa/C6+yDP8u1NvAAAAAGBuBBUAAACASFABAAAAiAQVAAAAgEhQAQAAAIgEFQAAAIBIUAEAAACIBBUAAACASFABAAAAiAQVAAAAgEhQAQAAAIgEFQAAAIBIUAEAAACIBBUAAACASFABAAAAiAQVAAAAgEhQAQAAAIgEFQAAAIBIUAEAAACIBBUAAACASFABAAAAiAQVAAAAgEhQAQAAAIgEFQAAAIBIUAEAAACIBBUAAACASFABAAAAiAQVAAAAgEhQAQAAAIgEFQAAAIBIUAEAAACIBBUAAACASFABAAAAiAQVAAAAgEhQAQAAAIgEFQAAAIBIUAEAAACIBBUAAACASFABAAAAiAQVAAAAgEhQAQAAAIgEFQAAAIBIUAEAAACIBBUAAACA6OL5YftWJwEAAAAsmRcqAAAAAJGgAgAAABAJKgAAAACRoAIAAAAQCSoAAAAAkaACAAAAEAkqAAAAAJGgAgAAABAJKgAAAACRoAIAAAAQCSoAAAAAkaACAAAAEAkqAAAAAJGgAgAAABAJKgAAAACRoAIAAAAQCSoAAAAAkaACAAAAEAkqAAAAAJGgAgAAABAJKgAAAACRoAIAAAAQXTx/Ht6GqdhsDx/7eD/mTpahnPc7Z/4xzvv4/Ew5Lnf8+Nzx43LHj88dPy53/Lic9/H5mXJcm/O/416oAAAAAESCCgAAAEAkqAAAAABEggoAAABAJKgAAAAARIIKAAAAQCSoAAAAAESCCgAAAEAkqAAAAABEggoAAABAJKgAAAAARIIKAAAAQCSoAAAAAESCCgAAAEAkqAAAAABEggoAAABAJKgAAAAARIIKAAAAQCSoAAAAAESCCgAAAEAkqAAAAABEggoAAABAJKgAAAAARIIKAAAAQCSoAAAAAESCCgAAAEAkqAAAAABEggoAAABAJKgAAAAARIIKAAAAQCSoAAAAAESCCgAAAEAkqAAAAABEggoAAABAJKgAAAAARIIKAAAAQCSoAAAAAESCCgAAAEAkqAAAAABEggoAAABAJKgAAAAARIIKAAAAQCSoAAAAAESCCgAAAEAkqAAAAABEF88P27c6CQAAAGDJvFABAAAAiAQVAAAAgEhQAQAAAIgEFQAAAIBIUAEAAACIBBUAAACASFABAAAAiAQVAAAAgEhQAQAAAIgEFQAAAIBIUAEAAACIBBUAAACASFABAAAAiAQVAAAAgEhQAQAAAIgEFQAAAIBIUAEAAACIBBUAAACASFABAAAAiAQVAAAAgEhQAQAAAIgEFQAAAIBIUAEAAACILp4/D2/DEmy2h499vB9zJ/PlDKfN9zne+b1zhsfl+3ycM5w23+fjnOG0+T4f5wynze/iizxDL1QAAAAAIkEFAAAAIBJUAAAAACJBBQAAACASVAAAAAAiQQUAAAAgElQAAAAAIkEFAAAAIBJUAAAAACJBBQAAACASVAAAAAAiQQUAAAAgElQAAAAAIkEFAAAAIBJUAAAAACJBBQAAACASVAAAAAAiQQUAAAAgElQAAAAAIkEFAAAAIBJUAAAAACJBBQAAACASVAAAAAAiQQUAAAAgElQAAAAAIkEFAAAAIBJUAAAAACJBBQAAACASVAAAAAAiQQUAAAAgElQAAAAAIkEFAAAAIBJUAAAAACJBBQAAACASVAAAAAAiQQUAAAAgElQAAAAAIkEFAAAAIBJUAAAAACJBBQAAACASVAAAAAAiQQUAAAAgElQAAAAAIkEFAAAAIBJUAAAAAKJVnQDAtHz5Npy/b/en3sH8OcNp830+zhl+2O33mzT+x6fd4YN9nw+7/dd/SeN/fB0m4fnzqXcA4/FCBQAAACASVAAAAAAiQQUAAAAgElQAAAAAIkEFAAAAIBJUAAAAACJBBQAAACASVAAAAAAiQQUAAAAgElQAAAAAolWdAAAwVa/r9am3AMPVfj8swe33m4PH/vi0G3Uv535+wDR5oQIAAAAQCSoAAAAAkaACAAAAEAkqAAAAAJGgAgAAABAJKgAAAACRoAIAAAAQCSoAAAAAkaACAAAAEAkqAAAAAJGgAgAAABCt6gQAgHNxtd+fegvMwOt6PSzBj0+7NP72+80oY/lzvg8wPi9UAAAAACJBBQAAACASVAAAAAAiQQUAAAAgElQAAAAAIkEFAAAAIBJUAAAAACJBBQAAACASVAAAAAAiQQUAAAAgElQAAAAAIkEFAAAAIBJUAAAAACJBBQAAACASVAAAAAAiQQUAAAAgElQAAAAAIkEFAAAAIBJUAAAAACJBBQAAACASVAAAAAAiQQUAAAAgunh+2L7VSQBMx5ev96feAkzG63qdxl/t96PthfOxlHt1+/1mtLV/fNqNtrZ9H3/vxfPD9tRbgNF4oQIAAAAQCSoAAAAAkaACAAAAEAkqAAAAAJGgAgAAABAJKgAAAACRoAIAAAAQCSoAAAAAkaACAAAAEAkqAAAAAJGgAgAAABCt6gQAAObjJY6/HmkfHN/t95tTb4GZfP8fn3aj7gXOlRcqAAAAAJGgAgAAABAJKgAAAACRoAIAAAAQCSoAAAAAkaACAAAAEAkqAAAAAJGgAgAAABAJKgAAAACRoAIAAAAQXTx/Ht6GqdhsDx/7eD/mTpahnPc7Z/4xzvv4FvIz5cu3U+8ApuN1vU7jr/b7YY5ewtjVzU1a+/fd7uCx18MyTOle3X5v3xPG8OPT4T8nnj8P07GQ3w0nY3P+f/94oQIAAAAQCSoAAAAAkaACAAAAEAkqAAAAAJGgAgAAABAJKgAAAACRoAIAAAAQCSoAAAAAkaACAAAAEAkqAAAAAJGgAgAAABCt6gQAAP5cL3H86uZmpJ20tV92u7T29S/s59zdfh/vW8Ik7u0/tp8TMCdeqAAAAABEggoAAABAJKgAAAAARIIKAAAAQCSoAAAAAESCCgAAAEAkqAAAAABEggoAAABAJKgAAAAARIIKAAAAQLSqEwAA+HNdx/Evu93BY1c3N2nt38Padd8AcE68UAEAAACIBBUAAACASFABAAAAiAQVAAAAgEhQAQAAAIgEFQAAAIBIUAEAAACIBBUAAACASFABAAAAiAQVAAAAgEhQAQAAAIhWdQIAAKd1Hca+7HajrQ0AS+aFCgAAAEAkqAAAAABEggoAAABAJKgAAAAARIIKAAAAQCSoAAAAAESCCgAAAEAkqAAAAABEggoAAABAJKgAAAAARBfPD9u3OgmA6fjy9f7UW4DJeF2v0/ir/X60vXA+xrxXt99vfmFHMB///B//dOotwGi8UAEAAACIBBUAAACASFABAAAAiAQVAAAAgEhQAQAAAIgEFQAAAIBIUAEAAACIBBUAAACASFABAAAAiAQVAAAAgEhQAQAAAIgEFQAAAIBIUAEAAACIBBUAAACASFABAAAAiAQVAAAAgEhQAQAAAIgEFQAAAIBIUAEAAACIBBUAAACASFABAAAAiAQVAAAAgGg1PN4Pi7DZHj52KWdSOcNp832Od37vnCEAf4Ifn3ajrX37/Wa0tTkvY97D4fNCfmfyu/giz9ALFQAAAIBIUAEAAACIBBUAAACASFABAAAAiAQVAAAAgEhQAQAAAIgEFQAAAIBIUAEAAACIBBUAAACASFABAAAAiAQVAAAAgGhVJwAAANP349Nu1PVvv99MZi9zVM7vnTOE6fFCBQAAACASVAAAAAAiQQUAAAAgElQAAAAAIkEFAAAAIBJUAAAAACJBBQAAACASVAAAAAAiQQUAAAAgElQAAAAAIkEFAAAAIFrVCQAA5+J1vT71FgCAmfJCBQAAACASVAAAAAAiQQUAAAAgElQAAAAAIkEFAAAAIBJUAAAAACJBBQAAACASVAAAAAAiQQUAAAAgElQAAAAAolWdAAAwVVf7/am3AAAshBcqAAAAAJGgAgAAABAJKgAAAACRoAIAAAAQCSoAAAAAkaACAAAAEAkqAAAAAJGgAgAAABAJKgAAAACRoAIAAAAQCSoAAAAA0apOgLn58m1Yhm/3p97BvDk/mKQf/zDM1+WpN8Cf5uepNzBR/7Y7fKz/Zj92fmOf4Yh3/Lf/HG9tODUvVAAAAAAiQQUAAAAgElQAAAAAIkEFAAAAIBJUAAAAACJBBQAAACASVAAAAAAiQQUAAAAgElQAAAAAIkEFAAAAIFrVCXDOXtfrU28Bhqv9/tRbgOW4HHHtuxHX5q89Teie/BzO/36/c8ePyx2HyfFCBQAAACASVAAAAAAiQQUAAAAgElQAAAAAIkEFAAAAIBJUAAAAACJBBQAAACASVAAAAAAiQQUAAAAgElQAAAAAIkEFAAAAIFrVCcAfrvb7U2+BmXhdr0+9BViGy1NvgJO5i+MfR7xXZfzPEdfmvMz1jsMZ80IFAAAAIBJUAAAAACJBBQAAACASVAAAAAAiQQUAAAAgElQAAAAAIkEFAAAAIBJUAAAAACJBBQAAACASVAAAAACiVZ0AAHA0lyOvfxfGPsW1H8PYTVybj3+fy5HuSd3LmHd8zH2/c8ePa653HM6YFyoAAAAAkaACAAAAEAkqAAAAAJGgAgAAABAJKgAAAACRoAIAAAAQCSoAAAAAkaACAAAAEAkqAAAAAJGgAgAAABAJKgAAAADRxfPD9q1Ogjn58vX+4LGv63Va+2q//4UdsUTlbrlX8Icfh/8I/293w3ieRlz7Zxy/GZZhzDOf612Z677d8eOe94Tuym9/vx1xI3BaXqgAAAAARIIKAAAAQCSoAAAAAESCCgAAAEAkqAAAAABEggoAAABAJKgAAAAARIIKAAAAQCSoAAAAAESCCgAAAEC0qhOA5XkJY69H3AfASd3F8U9h7OWIa9d9j6nsu5rSv3Ou3PGPc8dhUbxQAQAAAIgEFQAAAIBIUAEAAACIBBUAAACASFABAAAAiAQVAAAAgEhQAQAAAIgEFQAAAIBIUAEAAACIBBUAAACASFABAAAAiFbD4/0wGZvt4WOntO+5Kuf9zpmfjZc4fnVzc/jau11a+zruBWA27sLYx7j2ZRj7NOK+69rDiHvh+Nzxj1nK/Z7S3xD+3jyuzfn/vemFCgAAAEAkqAAAAABEggoAAABAJKgAAAAARIIKAAAAQCSoAAAAAESCCgAAAEAkqAAAAABEggoAAABAJKgAAAAARIIKAAAAQLSqE4BpegljVzc3o+2jrv2y2x089voX9gMwC5s4/nGkfYy9dv13cj7cceAMeaECAAAAEAkqAAAAAJGgAgAAABAJKgAAAACRoAIAAAAQCSoAAAAAkaACAAAAEAkqAAAAAJGgAgAAABAJKgAAAADRqk4Apuk6jH3Z7dLaq5ubg8f+Htcu+wYAAJgKL1QAAAAAIkEFAAAAIBJUAAAAACJBBQAAACASVAAAAAAiQQUAAAAgElQAAAAAIkEFAAAAIBJUAAAAACJBBQAAACASVAAAAACiVZ0AzN91HP+y2422NgC/4HLEte/C2Ke49tOIe+G8LOGOu98we16oAAAAAESCCgAAAEAkqAAAAABEggoAAABAJKgAAAAARIIKAAAAQCSoAAAAAESCCgAAAEAkqAAAAABEggoAAABAtBo222GW5rrvOZvrmX+7P/UOZu/61BsAOHdPI659NyzjXOb871wCd/zjZzLXf+dc/4aY677nbDO/M/dCBQAAACASVAAAAAAiQQUAAAAgElQAAAAAIkEFAAAAIBJUAAAAACJBBQAAACASVAAAAAAiQQUAAAAgElQAAAAAIkEFAAAAIFrVCQAAk/UUx9+FsY9x7cthPGXfw4T2MeYZjvntp+Rppt9nmOn3GfMM6/kt5Y7DjHihAgAAABAJKgAAAACRoAIAAAAQCSoAAAAAkaACAAAAEAkqAAAAAJGgAgAAABAJKgAAAACRoAIAAAAQCSoAAAAA0cXz5+FtWILN9vCxj/dj7mS+ZnqGX74dPvZ1vU5rX+33fUMsUrlb7hX84cfY/538HHHtyzD2bsR9zNnjSOe9FGPe73fu+PHu94zv+G//PizDTP9WmpTN/M7QCxUAAACASFABAAAAiAQVAAAAgEhQAQAAAIgEFQAAAIBIUAEAAACIBBUAAACASFABAAAAiAQVAAAAgEhQAQAAAIgEFQAAAIBoVScAABzNzzj+cuTxxd2Iay/FJox9nNC3r/d2rH2P+W98544f734v6Y7DjHihAgAAABAJKgAAAACRoAIAAAAQCSoAAAAAkaACAAAAEAkqAAAAAJGgAgAAABAJKgAAAACRoAIAAAAQCSoAAAAA0apOAP7wul6fegsA/G8/4/jLkfbB8V1O6F4NE9mL+31elnLHYUa8UAEAAACIBBUAAACASFABAAAAiAQVAAAAgEhQAQAAAIgEFQAAAIBIUAEAAACIBBUAAACASFABAAAAiAQVAAAAgEhQAQAAAIhWdQKcs6v9/tRbAOCYfoaxl3Htpzie6X77pfwb3fHzsoQ7DifmhQoAAABAJKgAAAAARIIKAAAAQCSoAAAAAESCCgAAAEAkqAAAAABEggoAAABAJKgAAAAARIIKAAAAQCSoAAAAAESrOgHm5vnzsAyb7eFjH+/H3Mn5n9/EzvDLt1PvABbiZxx/OdI++HNcjvjtg9u/jLc2TMFifhdnkbxQAQAAAIgEFQAAAIBIUAEAAACIBBUAAACASFABAAAAiAQVAAAAgEhQAQAAAIgEFQAAAIBIUAEAAACIBBUAAACASFABAAAAiFZ1AgDA2bgcce27Edfmrz1N6J78HGkfAEyKFyoAAAAAkaACAAAAEAkqAAAAAJGgAgAAABAJKgAAAACRoAIAAAAQCSoAAAAAkaACAAAAEAkqAAAAAJGgAgAAABAJKgAAAADRqk4AAJisy1NvgJO5i+MfR7xX7iHAInihAgAAABAJKgAAAACRoAIAAAAQCSoAAAAAkaACAAAAEAkqAAAAAJGgAgAAABAJKgAAAACRoAIAAAAQCSoAAAAA0apOAAA4msuR178LY5/i2o9h7Cauzce/z+VI9+RX9gLALHmhAgAAABAJKgAAAACRoAIAAAAQCSoAAAAAkaACAAAAEAkqAAAAAJGgAgAAABAJKgAAAACRoAIAAAAQCSoAAAAAkaACAAAAEF08P2zf6iQApuPL1/tTbwFG86Ne77thPE8jrv0zjt8MyzDmmU/krtxuR9wHTMDzg0vO+fJCBQAAACASVAAAAAAiQQUAAAAgElQAAAAAIkEFAAAAIBJUAAAAACJBBQAAACASVAAAAAAiQQUAAAAgElQAAAAAolWdAACwSHdx/FMYezni2nXfYyr7rqb07wRgEbxQAQAAAIgEFQAAAIBIUAEAAACIBBUAAACASFABAAAAiAQVAAAAgEhQAQAAAIgEFQAAAIBIUAEAAACIBBUAAACASFABAAAAiFbD4/0wGZvt4WOntO+5Kuf9zpl/jPM+Pj9TgFO6C2Mf49qXYezTiPuuaw8j7gWYpin9juV3w+PanP/fP16oAAAAAESCCgAAAEAkqAAAAABEggoAAABAJKgAAAAARIIKAAAAQCSoAAAAAESCCgAAAEAkqAAAAABEggoAAABAtKoTAAD4k23i+MeR9jH22vXfCQAT5oUKAAAAQCSoAAAAAESCCgAAAEAkqAAAAABEggoAAABAJKgAAAAARIIKAAAAQCSoAAAAAESCCgAAAEAkqAAAAABEggoAAABAJKgAAAAARIIKAAAAQCSoAAAAAESCCgAAAEAkqAAAAABEggoAAABAJKgAAAAARIIKAAAAQCSoAAAAAESCCgAAAEAkqAAAAABEqzoBAIATuxxx7bsw9imu/TTiXgDgyLxQAQAAAIgEFQAAAIBIUAEAAACIBBUAAACASFABAAAAiAQVAAAAgEhQAQAAAIgEFQAAAIBIUAEAAACIBBUAAACASFABAAAAiC6eH7ZvdRIA0/Hl6/2ptwCj+VGv990wT08jrn03030PM/724Vxut2NuBE7v+cEl53x5oQIAAAAQCSoAAAAAkaACAAAAEAkqAAAAAJGgAgAAABAJKgAAAACRoAIAAAAQCSoAAAAAkaACAAAAEAkqAAAAAJGgAgAAABCt6gQAgMl6iuPvwtjHuPblMJ6y72FC+xjzDMf89gDwN3ihAgAAABAJKgAAAACRoAIAAAAQCSoAAAAAkaACAAAAEAkqAAAAAJGgAgAAABAJKgAAAACRoAIAAAAQCSoAAAAA0Wp4vB8WYbM9fOxSzqRyhtPm+xzv/N45QzgPj8M03A3LsBnx+1zGtZ/ieODXLOV3Jr+LL/IMvVABAAAAiAQVAAAAgEhQAQAAAIgEFQAAAIBIUAEAAACIBBUAAACASFABAAAAiAQVAAAAgEhQAQAAAIgEFQAAAIBIUAEAAACIVnUCAMDR/IzjL0ceX9yNuPZSbMLYxwl9+3pvAZglL1QAAAAAIkEFAAAAIBJUAAAAACJBBQAAACASVAAAAAAiQQUAAAAgElQAAAAAIkEFAAAAIBJUAAAAACJBBQAAACBa1QkAAJP1M46/HGkfHN/lhO4VAIvghQoAAABAJKgAAAAARIIKAAAAQCSoAAAAAESCCgAAAEAkqAAAAABEggoAAABAJKgAAAAARIIKAAAAQCSoAAAAAESCCgAAAEC0qhMAAM7GzzD2Mq79FMcz3W8PAH+DFyoAAAAAkaACAAAAEAkqAAAAAJGgAgAAABAJKgAAAACRoAIAAAAQCSoAAAAAkaACAAAAEAkqAAAAAJGgAgAAABCt6gQAgGO5/cupdwAA8Ld5oQIAAAAQCSoAAAAAkaACAAAAEAkqAAAAAJGgAgAAABAJKgAAAACRoAIAAAAQCSoAAAAAkaACAAAAEAkqAAAAAJGgAgAAABCt6gQAAOA0XtfrU28Bhqv9/tRbgEnwQgUAAAAgElQAAAAAIkEFAAAAIBJUAAAAACJBBQAAACASVAAAAAAiQQUAAAAgElQAAAAAIkEFAAAAIBJUAAAAAKJVnQAAAEzf1X5/6i0wE6/r9am3ALPkhQoAAABAJKgAAAAARIIKAAAAQCSoAAAAAESCCgAAAEAkqAAAAABEggoAAABAJKgAAAAARIIKAAAAQCSoAAAAAESCCgAAAEAkqAAAAABEggoAAABAJKgAAAAARIIKAAAAQCSoAAAAAESCCgAAAEAkqAAAAABEggoAAABAJKgAAAAARIIKAAAAQCSoAAAAAESCCgAAAEB08fywfauTAJiOL1/vT70FAI7kdb0+eOzVfj/qXljmvap36/lh+ws7gnnwQgUAAAAgElQAAAAAIkEFAAAAIBJUAAAAACJBBQAAACASVAAAAAAiQQUAAAAgElQAAAAAIkEFAAAAIBJUAAAAAKJVnQAAADAVL3H89Uj7AJbHCxUAAACASFABAAAAiAQVAAAAgEhQAQAAAIgEFQAAAIBIUAEAAACIBBUAAACASFABAAAAiAQVAAAAgEhQAQAAAIgEFQAAAIBoNTzeD5Ox2R4+dkr7nqty3u+c+cc47+PzMwUAZukljF3d3LS1d7uDx16nlZn871h+Nzyuzfn//eOFCgAAAEAkqAAAAABEggoAAABAJKgAAAAARIIKAAAAQCSoAAAAAESCCgAAAEAkqAAAAABEggoAAABAJKgAAAAARKs6AQAAoHiJ41c3NyPtpK39stulta9/YT/AfHmhAgAAABAJKgAAAACRoAIAAAAQCSoAAAAAkaACAAAAEAkqAAAAAJGgAgAAABAJKgAAAACRoAIAAAAQCSoAAAAAkaACAAAAEK3qBAAAgOI6jn/Z7Q4eu7q5SWv/Htau+waWxQsVAAAAgEhQAQAAAIgEFQAAAIBIUAEAAACIBBUAAACASFABAAAAiAQVAAAAgEhQAQAAAIgEFQAAAIBIUAEAAACIVnUCAADAmK7D2JfdbrS1Af4vXqgAAAAARIIKAAAAQCSoAAAAAESCCgAAAEAkqAAAAABEggoAAABAJKgAAAAARIIKAAAAQCSoAAAAAESCCgAAAEAkqAAAAABEF88P27c6CYDp+PL1/tRbAOBIXtfrg8de7fej7oVl3qt6t54ftr+wI5gHL1QAAAAAIkEFAAAAIBJUAAAAACJBBQAAACASVAAAAAAiQQUAAAAgElQAAAAAIkEFAAAAIBJUAAAAACJBBQAAACASVAAAAAAiQQUAAAAgElQAAAAAIkEFAAAAIBJUAAAAACJBBQAAACASVAAAAAAiQQUAAAAgElQAAAAAIkEFAAAAIBJUAAAAACJBBQAAACBaDY/3wyJstoePXcqZVM5w2nyf453fO2cIAPD/W8rvTH4XX+QZeqECAAAAEAkqAAAAAJGgAgAAABAJKgAAAACRoAIAAAAQCSoAAAAAkaACAAAAEAkqAAAAAJGgAgAAABAJKgAAAACRoAIAAAAQCSoAAAAAkaACAAAAEAkqAAAAAJGgAgAAABAJKgAAAACRoAIAAAAQCSoAAAAAkaACAAAAEAkqAAAAAJGgAgAAABAJKgAAAADRqk4AAACm73W9PvUWAM6aFyoAAAAAkaACAAAAEAkqAAAAAJGgAgAAABAJKgAAAACRoAIAAAAQCSoAAAAAkaACAAAAEAkqAAAAAJGgAgAAABAJKgAAAADRqk4AAABO42q/P/UWAPgfXqgAAAAARIIKAAAAQCSoAAAAAESCCgAAAEAkqAAAAABEggoAAABAJKgAAAAARIIKAAAAQCSoAAAAAESCCgAAAEC0qhMAmJbnz8P522zb+Mf7sXYyX85w2nyfj3OG0+b7fJwzhMnxQgUAAAAgElQAAAAAIkEFAAAAIBJUAAAAACJBBQAAACASVAAAAAAiQQUAAAAgElQAAAAAIkEFAAAAIBJUAAAAACJBBQAAACASVAAAAAAiQQUAAAAgElQAAAAAIkEFAAAAIBJUAAAAACJBBQAAACASVAAAAAAiQQUAAAAgElQAAAAAIkEFAAAAIBJUAAAAACJBBQAAACASVAAAAAAiQQUAAAAgElQAAAAAIkEFAAAAIBJUAAAAACJBBQAAACASVAAAAAAiQQUAAAAgElQAAAAAIkEFAAAAIBJUAAAAACJBBQAAACASVAAAAAAiQQUAAAAgElQAAAAAIkEFAAAAIBJUAAAAACJBBQAAACASVAAAAAAiQQUAAAAgElQAAAAAIkEFAAAAILp4fti+1UkAAAAAS+aFCgAAAEAkqAAAAABEggoAAABAJKgAAAAARIIKAAAAQCSoAAAAAESCCgAAAEAkqAAAAABEggoAAABAJKgAAAAARIIKAAAAQCSoAAAAAESCCgAAAEAkqAAAAABEggoAAABAJKgAAAAARIIKAAAAQCSoAAAAAESCCgAAAEAkqAAAAABEggoAAABAJKgAAAAARBfPn4e3YSo228PHPt6PuZNlKOf9zpl/jPM+Pj9TjssdPz53/Ljc8eNzx4/LHT8u5318fqYc1+b877gXKgAAAACRoAIAAAAQCSoAAAAAkaACAAAAEAkqAAAAAJGgAgAAABAJKgAAAACRoAIAAAAQCSoAAAAAkaACAAAAEAkqAAAAAJGgAgAAABAJKgAAAACRoAIAAAAQCSoAAAAAkaACAAAAEAkqAAAAAJGgAgAAABAJKgAAAACRoAIAAAAQCSoAAAAAkaACAAAAEAkqAAAAAJGgAgAAABAJKgAAAACRoAIAAAAQCSoAAAAAkaACAAAAEAkqAAAAAJGgAgAAABAJKgAAAACRoAIAAAAQCSoAAAAAkaACAAAAEAkqAAAAAJGgAgAAABAJKgAAAACRoAIAAAAQCSoAAAAAkaACAAAAEAkqAAAAAJGgAgAAABAJKgAAAACRoAIAAAAQCSoAAAAAkaACAAAAEF08P2zf6iQAAACAJfNCBQAAACASVAAAAAAiQQUAAAAgElQAAAAAIkEFAAAAIBJUAAAAACJBBQAAACASVAAAAAAiQQUAAAAgElQAAAAAIkEFAAAAIBJUAAAAACJBBQAAACASVAAAAAAiQQUAAAAgElQAAAAAIkEFAAAAIBJUAAAAACJBBQAAACASVAAAAAAiQQUAAAAgElQAAAAAoovnz8PbsASb7eFjH+/H3Ml8OcNp832Od37vnOFx+T4f5wynzff5OGc4bb7PxznDafO7+CLP0AsVAAAAgEhQAQAAAIgEFQAAAIBIUAEAAACIBBUAAACASFABAAAAiAQVAAAAgEhQAQAAAIgEFQAAAIBIUAEAAACIBBUAAACASFABAAAAiAQVAAAAgEhQAQAAAIgEFQAAAIBIUAEAAACIBBUAAACASFABAAAAiAQVAAAAgEhQAQAAAIgEFQAAAIBIUAEAAACIBBUAAACASFABAAAAiAQVAAAAgEhQAQAAAIgEFQAAAIBIUAEAAACIBBUAAACASFABAAAAiAQVAAAAgEhQAQAAAIgEFQAAAIBIUAEAAACIBBUAAACASFABAAAAiAQVAAAAgEhQAQAAAIgEFQAAAIBIUAEAAACIBBUAAACASFABAAAAiAQVAAAAgEhQAQAAAIgEFQAAAICh+S9SpIEWIz6PBwAAAABJRU5ErkJggg==;" vertex="1" parent="1">
          <mxGeometry x="390" y="480" width="1000" height="1000" as="geometry" />
        </mxCell>
        <mxCell id="RcG9iWUMZUQm_ZydJTgz-6" value="" style="shape=image;verticalLabelPosition=bottom;labelBackgroundColor=default;verticalAlign=top;aspect=fixed;imageAspect=0;image=data:image/png,iVBORw0KGgoAAAANSUhEUgAABFQAAARUCAYAAABY/UdQAAAAOnRFWHRTb2Z0d2FyZQBNYXRwbG90bGliIHZlcnNpb24zLjEwLjEsIGh0dHBzOi8vbWF0cGxvdGxpYi5vcmcvc2/+5QAAAAlwSFlzAAAuIwAALiMBeKU/dgAAcylJREFUeJzs3QeYVdW5P+BvmKEOXWmKXREFu2Ls2Gs0lhS8kphmov/ERKOm35tubgppJrZozCWKldhji2KJFSxRsSKoIKhI7zDwf84gUeAMzJo5/bzv85zAnL3O2t/ss4NzfvPttWtu3C9WRDUYPqL5Y0eenc9KypdjWNq8P4U7fhmOYWF5f1rPMSxt3p/WcwxLm/en9RzD0uZn8ao8hm2KXQAAAABAuRGoAAAAACQSqAAAAAAkEqgAAAAAJBKoAAAAACQSqAAAAAAkEqgAAAAAJBKoAAAAACQSqAAAAAAkEqgAAAAAJBKoAAAAACQSqAAAAAAkEqgAAAAAJBKoAAAAACQSqAAAAAAkEqgAAAAAJBKoAAAAACQSqAAAAAAkEqgAAAAAJBKoAAAAACQSqAAAAAAkEqgAAAAAJBKoAAAAACQSqAAAAAAkEqgAAAAAJBKoAAAAACQSqAAAAAAkEqgAAAAAJBKoAAAAACQSqAAAAAAkEqgAAAAAJBKoAAAAACQSqAAAAAAkEqgAAAAAJBKoAAAAACQSqAAAAAAkEqgAAAAAJBKoAAAAACQSqAAAAAAkEqgAAAAAJBKoAAAAACQSqAAAAAAkEqgAAAAAJBKoAAAAACSqufGSEStSXwQAAABQzXSoAAAAACQSqAAAAAAkEqgAAAAAJBKoAAAAACQSqAAAAAAkEqgAAAAAJBKoAAAAACQSqAAAAAAkEqgAAAAAJBKoAAAAACQSqAAAAAAkEqgAAAAAJBKoAAAAACQSqAAAAAAkEqgAAAAAJBKoAAAAACQSqAAAAAAkEqgAAAAAJBKoAAAAACQSqAAAAAAkEqgAAAAAJBKoAAAAACSquXG/WBGlYviI5o8deXY+K6kOKcc7wzFvHce78PybUljO8cJzjheWc7zwnOOF5RwvLMe78PybUljDK/8c16ECAAAAkEigAgAAAJBIoAIAAACQSKACAAAAkEigAgAAAJBIoAIAAACQSKACAAAAkEigAgAAAJBIoAIAAACQSKACAAAAkEigAgAAAJBIoAIAAACQSKACAAAAkEigAgAAAJBIoAIAAACQSKACAAAAkEigAgAAAJBIoAIAAACQSKACAAAAkEigAgAAAJBIoAIAAACQSKACAAAAkEigAgAAAJBIoAIAAACQSKACAAAAkEigAgAAAJBIoAIAAACQSKACAAAAkEigAgAAAJBIoAIAAACQSKACAAAAkEigAgAAAJBIoAIAAACQSKACAAAAkEigAgAAAJBIoAIAAACQSKACAAAAkEigAgAAAJBIoAIAAACQSKACAAAAkEigAgAAAJBIoAIAAACQSKACAAAAkEigAgAAAJBIoAIAAACQqObGS0asSH0RAAAAQDXToQIAAACQSKACAAAAkEigAgAAAJBIoAIAAACQSKACAAAAkEigAgAAAJBIoAIAAACQSKACAAAAkEigAgAAAJBIoAIAAACQSKACAAAAkEigAgAAAJBIoAIAAACQSKACAAAAkEigAgAAAJBIoAIAAACQSKACAAAAkEigAgAAAJBIoAIAAACQSKACAAAAkEigAgAAAJBIoAIAAACQSKACAAAAkKjmxv1iRVSD4SOaP3bk2fmspHw5hqXN+1O445fhGBaW96f1HMPS5v1pPcewtHl/Ws8xLG1+Fq/KY6hDBQAAACCRQAUAAAAgkUAFAAAAIJFABQAAACCRQAUAAAAgkUAFAAAAIJFABQAAACCRQAUAAAAgkUAFAAAAIJFABQAAACCRQAUAAAAgkUAFAAAAIJFABQAAACCRQAUAAAAgkUAFAAAAIJFABQAAACCRQAUAAAAgkUAFAAAAIJFABQAAACCRQAUAAAAgkUAFAAAAIJFABQAAACCRQAUAAAAgkUAFAAAAIJFABQAAACCRQAUAAAAgkUAFAAAAIJFABQAAACCRQAUAAAAgkUAFAAAAIJFABQAAACCRQAUAAAAgkUAFAAAAIJFABQAAACCRQAUAAAAgkUAFAAAAIJFABQAAACCRQAUAAAAgkUAFAAAAIJFABQAAACCRQAUAAAAgkUAFAAAAIJFABQAAACCRQAUAAAAgkUAFAAAAIFFd6gsAKC0fezAq34NnF7uC8lemx3DoplGeahPHn1+e709JyecxbMjf1GPeiJKx3eMbJY1/YchbFf9vUCnZ7te/Shr/wmlREm7cr9gVQP7oUAEAAABIJFABAAAASCRQAQAAAEgkUAEAAABIJFABAAAASCRQAQAAAEgkUAEAAABIJFABAAAASCRQAQAAAEgkUAEAAABIVJf6AgCAUjWqe7coCbXFLoCcakgbPmzW7KgG2z2+UbPHvjDkrbzWUunHDyhNAhUAoDrlM/Tom8e5yW5aiZwrieELAOXLJT8AAAAAiQQqAAAAAIkEKgAAAACJBCoAAAAAiQQqAAAAAIkEKgAAAACJBCoAAAAAiQQqAAAAAIkEKgAAAACJBCoAAAAAiepSXwAAULJq04YPmzU7P3V0zM+05OiYT06betQG3dLOwcTzsFS8MOStpPHbPb5RXsaSm/cHyD8dKgAAAACJBCoAAAAAiQQqAAAAAIkEKgAAAACJBCoAAAAAiQQqAAAAAIkEKgAAAACJBCoAAAAAiQQqAAAAAIkEKgAAAACJBCoAAAAAiepSXwAAUDC1eZy7b0R0TBg/NWHs5MRa+ieOp3XvT20LzpXmmpY4NwBlS4cKAAAAQCKBCgAAAEAigQoAAABAIoEKAAAAQCKBCgAAAEAigQoAAABAIoEKAAAAQCKBCgAAAEAigQoAAABAIoEKAAAAQKKaGy8ZsSL1RQCUjo+ddnaxS4C8GbpF2vhRA7sljR82e3bzB0+N/GlIGNs/qkM+j3e/tOGjuiWcV9Mihs1q/nk1ZmKUjO0e3yhvc78w5K28za3uwtee4sZLRhS7BMgbHSoAAAAAiQQqAAAAAIkEKgAAAACJBCoAAAAAiQQqAAAAAIkEKgAAAACJBCoAAAAAiQQqAAAAAIkEKgAAAACJBCoAAAAAiQQqAAAAAInqUl8AAFCV+iWMnZo4d23+5h6VUndEDIs8Sj0uKRK/z2qw3eMbFbsEyuT9f2HIW3mtBSqVDhUAAACARAIVAAAAgEQCFQAAAIBEAhUAAACARAIVAAAAgEQCFQAAAIBEAhUAAACARAIVAAAAgEQCFQAAAIBEAhUAAACARHUx8uwoGcNHNH9sKdVdrlKOd4Zj3jqOd+H5NwUoln6J4ycnjK2NGJUwvM2Sns0f3Ddi1IwZzR4+bGqUzjGsEts9vlGUI3VX1vf5wpC3yvNnLD8bFtbwyv/8o0MFAAAAIJFABQAAACCRQAUAAAAgkUAFAAAAIJFABQAAACCRQAUAAAAgkUAFAAAAIJFABQAAACCRQAUAAAAgkUAFAAAAIJFABQAAACBRXeoLAADIrVH9EwZPjmjTs2fzxy9LnDuaP/eohhkJk0cMS/k+q8R2j29U7BIgv+ftN97KZylQVDpUAAAAABIJVAAAAAASCVQAAAAAEglUAAAAABIJVAAAAAASCVQAAAAAEglUAAAAABIJVAAAAAASCVQAAAAAEglUAAAAABLVpb4AAIDcGpY4ftSMGc0e26Znz6S5lyfMnVo3AFQSHSoAAAAAiQQqAAAAAIkEKgAAAACJBCoAAAAAiQQqAAAAAIkEKgAAAACJBCoAAAAAiQQqAAAAAIkEKgAAAACJBCoAAAAAiQQqAAAAAInqUl8AAEAR1UYMSxg+avaM5g/uFzGsU8LkUxPGpo7vlzg3ABSYDhUAAACARAIVAAAAgEQu+QEAAKrS/OmLY9nihv983aFr22jfpW1RawLKh0AFAACoSu9NnBfz3138n697bdtFoAI0m0t+AACAqrSiYcU6vwZYF4EKAABQlRbMWLLa1zPfXFC0WoDyI1ABAADI0KACJBCoAAAAACQSqAAAAAAkEqgAAAAAJKqL4SOiLJVr3eXMMS8sx7uwyvl4P3h2sSsAStiwYhcAVLdy/RmrXOsuZ8PL75jXFbsAAICqNzWPc/eL6jgm5fp9AlC2XPIDAAAAkEigAgAAAJBIoAIAAACQSKACAAAAkEigAgAAAJBIoAIAAACQSKACAAAAkEigAgAAAJBIoAIAAACQSKACAAAAkKgu9QUAACVrWsLYvolzT04YWxv50y9KR78SOoZTy/QYAlC2dKgAAAAAJBKoAAAAACQSqAAAAAAkEqgAAAAAJBKoAAAAACQSqAAAAAAkEqgAAAAAJBKoAAAAACQSqAAAAAAkEqgAAAAAJKqLkWdHVRg+ovljq+WYpHIMS5v3p3DHL8MxBCAHXhjyVt7m3u7xjfI2N5Uln+dh7FclPzP5Wbwqj2FdsQsAACiKKRExK0pDv6gO/RPGTk6cuzZh7NTEuRcmjgegKrjkBwAAACCRQAUAAAAgkUAFAAAAIJFABQAAACCRRWkBAICStGxWQyx6YWksfashli9cEcsXLI8VSyNiRY52MGH1L5fXLo93XpyTm7lrImo61ESbjjVRW18T7bZoGx22qYs2Hf1OGyqFQAUAACipEGXeA4tj4QtLYtnbDfnd2burf7miTcTi5ZnEJg/uXxTRpibabVobHXdoF1327RA1bWvysy+gIAQqAABA0a1YsSLm3rco5ty1MFYsyVULSolZviKWTFrW+Jj30OLocWKn6Lh9u2JXBbSQfjMAAKDoYcrMq+fH7FsXVG6YsoaGmQ0x/bK5Me+xRcUuBWghgQoAAFBUs/6+IOY/sTiqzoqImdfOjwXPVOH3DhVAoAIAABTN4klLY96/qrhLIxOqjF4QyxcuL3YlQCJrqAAApSuf61HWvv/Ih355mrea9E8cPzlhbL7e91XnbJ7XUW2uF4a8ldf5t3t8o5KppcUGrPH10mhc26QQOu/b/j9/Xz53ecz556Lofkyn8juGUMV0qAAAABTZwn8vKXYJQCKBCgAAQJEtm94QS6eXSHsT0CwCFQAAgBKw6MWlxS4BSCBQAQAAKAGLJwhUoJwIVAAAAErA8nkril0CkECgAgAAUAKWLxCoQDkRqAAAAJSA5QuXF7sEIIFABQAAoBTIU6CsCFQAAAAAEtWlvgAAAKCctW3bNnbYYYfY45g9ou+GfT/YkFnCZMbKv44ZMybuv//+otUIlD6BCgAAULFqampi4MCBsccee/znsdNOO0WHDh3W+bof/OAHAhVgnQQqAEDlaEgYWxsxqnu3/NSRp2lZh4Ulcl5RdBtvvHHsvffe/wlPdtttt+jSpUuxywIqkEAFAACoGBdccEF87GMfK3YZQBWwKC0AAABAIoEKAAAAQCKBCgAAUHUWLFgQDz/5cLHLAMqYNVQAAICKtmTJknjuuefiiSeeiLFjxzb+mfm6YauGWPFS5l7JAOkEKgAAQMVoaGiI8ePHN4Ymqx5PP/10Y6gCkEsCFQAAoGJ84hOfiOXLlxe7DKAKWEMFAACoGMIUoFAEKgAAAACJBCoAAAAAiayhAgBUjGGzZudv8tqEsbPyVwY50FDsAgCoBDpUAAAAABIJVAAAAAASCVQAAAAAEglUAAAAABIJVAAAAAASCVQAAAAAEglUAAAAABIJVAAAAAASCVQAAAAAEglUAAAAABIJVAAAAAAS1aW+AMrNb1+P8lSbOP78s/NUSJXI9/FriKrQed/2zR4776HFea2Fynh/PrF9xIGbRXmqL3YB5Mz8YhdQoq5+q/ljs/xn9p15Ef9zTxTVmHVs27xHxNAt87jzt9b+d7bbjIifX70w+/izy/Mcf2l8/uaGYtOhAgAAAJBIoAIAAACQSKACAAAAkEigAgAAAJBIoAIAAACQSKACAAAAkEigAgAAAJBIoAIAAACQSKACAAAAkEigAgAAAJCoLvUFUMlGde8WJaO22AWQUw3NHzps1ux8VgJ8WH0e5z4hj3OzttEldJ7Mj8o/v3Nxjk+PiOdyVEtramhK54joG4XVdR3H1TkOJUegAqUaehT6P+BETMvj3AKytXTet33S+HkPLc5bLdVyDAEAyB2X/AAAAAAkEqgAAAAAJBKoAAAAACQSqAAAAAAkEqgAAAAAJBKoAAAAACRy22QAAKCi9O23eXToUL/ecYN6NL2tR4/esfkWg5q1v2lTJ8aiRQtSSgQqgEAFAACoKN/8zl9i512HtmqO4044o/HRHF//ytB45qn7W7U/oPy45AcAAAAgkUAFAAAAIJFLfmBNtc0fOmzW7PzV0TF/U5ODYz45bepRG3TLyzlYauY9tLjZYzvv2z5p7tTxtO79KVvrXzKBSnVC4viReTyvUsbPz+PcVJZyPcehgulQAQAAAEikQwUAAKgoZ331wGaNGzN99a/b1kTss0F+agIqjw4VAAAAgEQCFQAAAIBEAhUAAACARAIVAAAAgEQCFQAAAIBEAhUAAACARAIVAAAAgEQCFQAAAIBEdakvAAAomA4RUZ/H+U9IGDs6ce6RCWOHJ85N69+f+jydJ6m1lMr5neEcL23leo5DBROoUPlq8zQ2o1/i+KkJYycnzt0/cTyte39Sz5W+CWNnJc4NAAAUnEt+AAAAABIJVAAAAAASCVQAAABKQBufzqCs+L8sAABQcB0zi06zmg7ti10BkEKgAgAAFFynjsWuoPQ4JlBeBCoAAEDB1dZGdNClspr6TsWuAEghUAEAAIpiq82KXUFp2WrzYlcApBCoAAAARbH9tsWuoLQMcjygrAhUAACAoth+QLErKB3dukZs3K/YVQApBCoAAEBR9O0d0adXsasoDTtsV+wKgFR1MXxE8osqnmNSWcfw/LPTxvdNGDs78qc2cfzkhLH9ozpMzePcfoOUVed983e/x3kPLc7b3NVSd8r4fNadVydE6ahPGDsyce7hUR1GV8m5UuXn+PE1ERdNrsKfVaZ98Nf2tRFHLcrxOV8q50opfS4oFY5JxRxDHSoAAEDR7NQnYsc+UdU+ul1ED7dMhrIjUAEAAIrq8ztFbLtBVKXDt4k4eOtiVwG0hEAFAAAoqna1EWfsFrF3/4iamqgKmct8Thoc8bFBxa4EaKm6Fr8SAAAgh6HK8B0i9t0k4h9dIl5+NWLxkqg4XbtE7Lj9yjVTXOYD5U2gAgCUrJfejeiU8tPKky3fV5s2EZ06RHTqFNGtS0TPHi2fC2i5LbpHnDE8YtmyiAmTIp5/KeLNtyIWLopYsCBiUSZkWZGjnc1d/cuaNhFdOudm6kynTcfMvykdI+rrI7befOVtovtv9H4XTj4XXQYKQqACAJSsf74a8UzKHbveyt2+N9xg5YefzGPg1hH5uxcUkE1dXcS2W6985Mst96z+dX3biF8ckL/9AZVFoAIAkMX09yIeeGTlo3N9xMe6ROy9WfWs7wAArJtFaQEA1mPe/Ii/PR3x+4cjliwrdjUAQCkQqAAANNOL70b86dGIJQ3FrgQAKDaBCgBAgpemR9z+UrGrAACKzRoqwHqNShg7LI91ABRV3w/+es/8iL32i+jTax3jU+7gUZ9YS8rcJ0TpyOddTUrp+yxXqcfQOb425zhUFYEKFFK/hLEpd7XIqM3j3Cl151tq7eX6fZaIzvu6r0m1auq9X75wRSx+be1FRBpmLo9q0tAQ8dBjESceU+xKAIBicckPANBsDfOqKzhZl+dd9gMAVU2gAgA02/L5K4pdQsmY+nbEzFnFrgIAKBaX/AAAzbKiYUUsXyBQ+bDxr0Tss0exqwAy/vVexIUTWzfHzKURp4xt/viaiPjNDhEbukIWqpJABQBolhVLM/9T7CpKy7vTi10BsMru3SMmL4x4e3Hr5hmX0Hl2RG9hClQzl/wAAM3uUGF18xcUuwJglfa1EV/cvLD7PH3Lwu4PKC0CFQCgeRqKXUDpWbCw2BUAH3bSRhF9CtQxkulOGdC5MPsCSpNABQBoHg0qa1m69h2kgSrpUtGdAghUAACAilGILhXdKUCGQAUAKAtduvWIvv03j0223DZ69esfHet9mgGK06WiOwXIcJcfAKDk1NTUxH777RefG3Zs7D5k79hiwODo1LnLWuPee2dqvPbiv+OJB++MB+4cHW83vF6UeoHS61K5dFLr7/iTje4UYJWaG/croSuih49o/tiRZ+ezkuqQcrzL+Jj/dnLzx47q3i2ib/PHD5s9O0pGyvdZmzZ1mw16Nnvs8nYzkuYeNjXyp1+UjFHdujV77LAX086rMRPTaum8r/s70jINs5fHksmtX5m2YebyJrfV1tbGF7/4xTjnnHNiq622Spu3oSEeffjW+PPF341JE5+PQthh+4gzTs3BRCMTx9dH/pyQMHZ05FdKLaUkn8elXI9JEc7xK9tG/KRj5NxN8yIGNP3PWOW/l4nn+EtPROnwebOwhlf+502X/AAAJWGXXXaJp59+Oi688MLkMGVVGLPPfsfFpVc8FV/40k+jTRs/5kA1O2lpRJ9cBB8fcsTSHIUpQEXwkwYAUHTDhw+Phx9+OAYPHtzquerq2sZ/ffo78YsRd0aHjvls5QBKWaYf84s5vuTn9DxcQgSUL4EKAFBUmUt8rrjiiujQoUNO591tj0Pi57+8Ldq1y+28QHV2qehOAdZkUVoAoGgOP/zw+NOf/rTOy3Nefu7JGHP7tTHuX3fHu9OmxNzZM6Jr9w2iV9/+sft+h8VBx3wqttx2h6yv3WmXA+Ls8y6Kn/8kFwudAOXapZKLtVR0pwBrEqgAAEXRq1ev+Otf/xp1ddl/HJk+fXqM+OHZ8cjta69mOePdaY2Pl54dG1ddeH4c/ckvxJe++Yvo3LX7WmMPP/IzMe6Je+LuO/+Wl+8DKP0ulUvbR7zdit583SlANi75AQCK4vzzz48+ffpk3TZ16tQ44IAD4pbr1n9rkBUrVsStV18a3xh+cMyeNT3rmC9/5VdRX9+11TUD1bmWiu4UIBuBCgBQcFtuuWWcemr2y3CWLl0axxxzTIwfPz5pzsylQd/79scab5+8pp49+8SwU77Z4nqB6l1LRXcK0BSBCgBQcKeffnrjbY6z+fnPfx5PPvlki+Z97t//itHX/z7rtuOOPyM6derSonmB6u1S0Z0CNEWgAgAU3Cc/+cmsz8+fPz9+/etft2ruUSN/HkuWrP0JqHOX7nHYEcNbNTdQXV0qulOAdRGoAAAFNWjQoNhkk02ybrv22mtj9uzZrZp/5sx34qEH/p5126ECFahaLelS0Z0CrItABQAoqD333LPJbXfffXdO9jFu7D1Zn99+0EeiV+/+OdkHUKZdKplkpRmO6K07BVg3t02GCjEq4fNBmwU90yZfljD3srS5RzXMaPbYYZn/8TloLZ33beZPhlAitt95uya3jX3xiajt8cHve+oy/6QsTv9EM/65R5vctseQw+L2Wy+PkpLaOLP+mx+1XD7n1iBUvUrkHG/sUlkR8ZNu6x97+vNpPwM1co5DVdGhAgAUVP+Ns1/us3z58pj4+sSc7OOtKROa3LbLbgflZB9AeTppQUSftW8GtpojFkYMSA1TgKojUAGASpK5cc62EbFNlKxuXbP/anjO3DmxYsWKnOxjyZJFsWTxoqzbBgzcPSf7AMpTY5fKvHWPOX092wEyBCoAUElByrERsVtEdIiS1b5du6zPz5uf208wCxdmn69//22iY6fOOd0XUDldKrpTgOYSqABAJQUpHaPkLVm6NOvznetzG3J07Jh9vjZt2sQmmwzI6b6AyulS0Z0CNJdABQDKURkGKevrROnapWvU1NTkZB/t2nWIdu2bbtPpt9GWOdkPUFldKrpTgBQCFQAoJ2UcpKwyZeqUJjtHNttks5zsY6ON1x2Y9O23eU72A1RWl4ruFCCFQAUAykEFBCmrTHjt1Sa37bn7R3Kyj+0HrXue7t175WQ/QOV0qehOAVIJVACglFVQkLLK0/9+usltBx2Qm1sa77rbwevc3qVrz5zsB6icLhXdKUAqgQoAlKIKDFJWeeKpJ2Lu3LlZt33y+E9Gly5dWjV/t+4bxn5DT1znmC5derRqH0Bldal8Zp7uFCCdQAUASkkFBymrLFmyJO68986s2zp37hxf+/LXWjX/p04+N9q1y/zeuWlt2657O1A9Mv8afDN7xguwTnXr3gyUi2EJY0fNmJE0d5uezW+NX544d0rdUPFBytaZxT8qM0RZ0+UjL4uTjjsp67Zvn/2duOm2m+LZ8c8mz7vdoD3j4588e73j6tq2S54bqFy5ub8YUG10qABAMVVBR0o2d917V4x7elzWbe3bt4+br7klBmw9IGnOrQbuGD/5+U1RW7f+3xfVtskceACAlhOoAEAxVGmQ8mHnfu+cWL58edZtm2y8SYy57f444qhPNWuuI048NX5z1Zjo2bNPs8YvXbokqVYAgDW55AcAKvHSnq4RsUGO51wRETm8UuaBsQ/E7y/5XXz9y2dl3d67V+84/1dXxvjPnBV33XZNPP7wPfHOtCkxd87M6NqtZ/Tu2z/22u+wOOzoT8WA7XZa6/UTJ74QW2yxXda5FyxeFHNysADltEURz8yOwmvb+il6Nay8zKHXcj8QAkBL+O8nAFTiGimbvf/IpVciIsfhwXkXnhfbDhoYR+53ZJNjtt9h98ZHijnz5sRJ3zglxo3OflnR5Nnz4slZ0WpPTom47okovA1zN9V9b0f0zd4oBACsg0t+ACDf/6Wt8kt71iVzyc+JXzshbrr3ppzNOW/+vDj6tKPjlUmZBCi7adOn5Wx/AEB1EqgAQL5lLi1pKHYRpWvJ0iWNocp3f/udWLR4UavmevX1V2OvT+0VD417KHp2b/oOZdPeFagAAK0jUAGAfMpcSjEhIm6NiMcy7RPFLqh0/e9l/xs7Hb9jXHnrlbF06dLkS3x+/Kcfxw4f3SGee/m5xuc27NH0dTGvvflaq+sFAKqbNVQAoJDBysSI2CIiBkVE5zzu7+WIeD7Hc87MtHZEXk2YNiE+89lPx7m9zokTjjkhjj/s0Bg8aLfo1WfjaNNm9d8DzZoxPcb/+/F46J+3xF03XxXz582JnXtHRP3K7Qduu3mT+2n77vPxkaYbWJptu80ihu8bhXdD66fotGLlorSdM4sNAwDJBCoAUInByuKIWJiHOQt06dI7096Ji/58Ufzr1oui++Ll0bZdu+ixQZ9o37FTNDQsi3mzZ8acWTNWe02HzP98KHPZfJPMKsBrW7hwfrw3dUJ0yEGfbue6iH6NOy4wi8gCQNEJVACgGjpWytzSJUvinalvJr1mwIBdsz4//rlHGhfDBQBoDYEKABSTYCVvBg7aM+vzzzx9f8FrAQAqj0AFqtCw2rTxo2bPaP7c/ROLmZrH8f0S54ZiEqzk1OZbbB99+26WddvDD90cZe/9dWLy4oS1n2pYEVGbWXBlTaMT5x7d+lqoEgU+x5uUz3Pc+Q1lz11+AKCUuCtQTuw/9KSsz7/x+osx4dV/F7yecvff4yOWuEoKAFYjUAGAUiRYabE2tbVx5DGfy7rtH7f9peD1lLvHZ0SMnhpxU2pHIQBUOJf8AEApcylQssOP+HTWy30WLpgXt958SVFqKmd/zJx7EXHxxIjj+kW08+s4Ksg1kyNem//B10N7ReyVg1uqA9VBoAIA5UCw0iydu3SPz532k6zbbr7xopg3d1bBayr37pTHZ678+5RFK7tUPr5xsauC3PnnuxEPvvfB1xu2F6gAzed3DABQTlwKtE7nfvuy2HDDjdZ6fvas6THyr9mDFtbfnbJKpkvFWipUkqmLVv962hpfA6yLQAUAypFgZS1f+8EFsf8B2W+bcdEfz43582YXvKZK6U5ZZVWXClSKVz90uU/GP94uViVAORKoAEA5K/Ng5b8+cUrsv/f+rZqjS7ce8aMLR8fHhv+/rNsfuH903HH7Fa3aRzVasztlFV0qALCSQAUAKjFYWRBlYf999o97b70vnhgzNr52+tdi8003b/ZrO3XuEieeemZccdcLsd9hx2cdM2ni+PjFz7Lf8Ye07pRVdKkAwEoWpQWASgxWyswuO+7S+Pj1T0fEcy88F2OfGhtP//upWDFnUiyf/l4snD832rXvEN036B2bbLlt7LD7vrHbPodGx071Tc757rtT4lvnHOVSnxx2p6zynzv+FKogAChBAhUAoKQM3m5w4yNOPrXFc7z5xstx7lmHxdvTXs9pbdXenbLKf+74U6iiAKAE1cXwEVGWyrXuclaux/z8s4tdQdkbVuwCABL868GbGi/zmTNnRpSN0XmcO/s6vU3647jmjWvsUok8d6mMzt/3SfWe42V7TMr1+yzXzxDlWnc5G15+x1yHClSKfF7P3i+q45iU6/cJNJr+9ltx2Z+/awHaPHenrNal0jbi40vzXRUAlCaBCgBQNL/544iYOu2tOPrwYxrXUGmJSS8/H7dcfXHcds2fY3H3hTmvsZqsb+2UNV3cPuK4pdZSAaA6CVQAgKJ58eUX4wfn/6Dx0bNHz9hrj71ij932iG23GRhbbLZFbLbxRlHfqUu079gpli5ZHAvmz43p0ybHm6+9FC8883iM+9fdMemV8cX+NqquO2WVKW10qQBQvQQqAEBJmDFzRtx2122Nj1V26BvRfXHm1kWUWnfKKrpUAKhWbYpdAAAA5dedsmaXCgBUG4EKAECVa2l3yoe7VJbkqhgAKBMCFQCAKtaa7pRVdKkAUI0EKgAAVay13Smr6FIBoNoIVAAAqlQuulNW0aUCQLURqAAAVKlcdaesoksFgGoiUAEAqEK57E5ZRZcKANWkrtgFQMmZljC2Y+LckxPG1kb+9IvS0a+EjuHUMj2GQMv+Dc/o28p/fzLtGCObGF8f+XNC6XWnrHJxj4jj9o5ol+3Xdk0dq8jBMRxd+GNYFKPz+D3m8/2JMn1/8nkMU49ftZzjUEZ0qAAAVJl8dKesMmVRxE0pATUAlCmBCgBAlclXd8oqF0+MWLI8v/sAgGITqAAAtFBNTZSdfHanrKJLBYBqIFABAJqnDMODfGtbhj9J5bs7ZRVdKgBUujL8MQAAKIp8LpZdpjqV2R1tCtGdsoouFQAqnUAFAGiWmlotKuUeqBSqO2UVXSoAVDK3TQYAmqWm3fuX/awodiWlo0+nKBtTFkZ0aBOx/wbNf80D7639XMrrM56fE7FL97TXAEA5EKgAAM1S06Ym2nSqieXzJSqrFqTdvleUjY07Rly8S9prtrtn7edS5wCASuWSHwCg2Wo7u+xnlY27RHRrX+wqAIBiEagAAM3WprMfHVbZfsNiVwAAFFNdjDw7qsLwEc0fWy3HJJVjCFD12nSoiTb1FXTZz+SWvaxtbcR+m+SwjhOiOgxPHD8yYWx94tyjo/KlHL98c463/v0p13O8Wj4X+KxUlcfQGipQhB/E86JfVIf+eXx/Um4Jm3or0IWRN/MeWpy3uTvv63oG1ta2X20snrBstcVpG2bm51Yuy9q14ENEARy+ZcSGZbQgLQCQe/p2AYAkbdrXNIYqjXf8qUKDe68MVACA6qZDBQBIVtdj5e9klk5tqKrbKO/UJ+LzO0XU+ZUUAFQ9gQoA0OJQJXMb5aXTGqJhZlS07h0iThwYsXu1XF4JAKyXQAUAaNXlP+03q4ulbzZEJd4WeVCvlXfz2aqHrhQAYHUCFQCgZB25bcRuG+dxBx9aMLpNTUSntisfXdtF1GcWxC1hy5ZFTJgU8fxLERPfiJg3P2LhoohFi3J4Fdbbaz/1tTG5mTqzBE+79hGdOkTUd4rYZOOI7QdEbLtVRHvrYRMRixZHvPjKynN8ytSIBQtXPpYsyd85Pq9NxNfuzt053qFDRKeOEZ3rI7bcLGL7bSO22iyiNmUhfKBkCVQAgJK1Rc+InfJ5mc38KDtT34645a6I8S9FLF6S551laTzKfJjNlUz9c+eu/Ptrr0fc//DKD5rbbBlx9CERW+duV5SRTIjyj3tXBoYN+W5+W3P+5bk/x2fPWfn3V16LuPO+lSHLoG0jjp0f0bsE72IGNJ9ABQCgDKxYEXHTHRH3PFCAD5lFlPneMh+oM489V0ScPCiind/mV4VMh9Xfro948t9R0TJdZOOeiXjmrYgjtoo4WnIIZUugAgBQBmHK/10X8ejYqCqPTYmYtSjijN2EKtUQplxw2cpOpWqxbHnEra9EzF0S8anti10N0BKWVwMAKHGZzpRqC1NWeem9iL9WeMcCEZf+rbrClA+7//WIO18rdhVASwhUAABKfM2UzGU+1ezJaRHPv1vsKsiXsc9EvPByVLXbXo1470OLZAPlwSU/VL6GxLEpLcX5bD/O5yKM1aJ/4vjJJfLel9DaCPMeWpy3uTvv275kailXVXEMFyUuHJu6wGM+F4Q8ITfT3HpXZa+Z0tx/x/9eEzFo+DrGjiyh9z6fix2n1J3vBU9zdI7f+I+Iaj+/l2ZCle4Rn/7EOsZXyzkOZUSHCgBACd8aeXyV/+Z+lcxtc2fOKnYV5Npb0yLem1HsKkrDcy+uXC8JKB8CFQCAEpVZU2JRGTYW5cvzLxW7AnLNe/qBufMi3nyr2FUAKQQqAAAlSnfK6hyPyuM9Xd3zLxa7AiCFQAUAoERNfKPYFZSWar0LTCWb5BxfzcQ3i10BkEKgAgBQouYvKHYFpWWBu6BU3BpBLmlbnf/PQ3kRqAAAlCgBwuqWLo1YkrkdChVhYeYuXqxmgUAFyopABQCgRPnt/doW+RBeMQQqa1u8pNgVACkEKgAAJWrF8mJXUHqWu60sFWy5/89DWakrdgEAAJSmmpqa6NalW3Tv2j3qauti9tzZUVc3K5Ytc90N5a1NbW107tw9turUPZYvXx4zZs9oPL8BUghUAABoNHiHvWPnXQ+M7bbfM7YduHv06Nkn2rRZu6F5/vw5MeHVZ+LF8Y/H8889Eo88fGssXeL6JErThr02jl12PTC2GbBLbLHVDrHFFoNjgw37rTWuoaEh3pv1Xrz28th4/tmH49l/PxT/fvqBWLFCWxSQnUAFWmFU9275mzyPU9OEeQlja/NYB9By8xPH1+epjjLSrl2HOObYL8ZHP/al2HyLQc16TX1919hxp/0aHxlz5syIu+8YGTdc97uY+tbEPFfcVFEldF5FidRSX73dJ7vtfkjss++xscvuB8emm27brNfV1tZG7w16R++9joqP7HVU43NTpkyIm274Y9x+2+Uxf16RO1iq5RyHMiJQgTU1JIz1obqy1JbIeQVQwI6Uc79zebM/cDala9eeceInvhZHH/vFuPzS78f11/zGb/Upyvl82BGfjv2Hnhjdum+Ykzk33nirOOPMEXHKqd+L3/zyyzHm3utyMi9QGSxKCwBQhf7r09+J3/7xgVaHKR/WoUOnOOOrv44Rv7+3sYsFCukrX/9dY6dVrsKUNUPD//nxtfGd/x7ZeJ4DZAhUAACqzKc/+/34wpd+2niJQz7svOvQ+OVv7or27TvmZX4olkMPP6Xx3O7YqXOxSwFKgEt+AACqSGZtiM9+4UfrHJNZB+XOf/w1/vbgQ/HChBdi5pyZjQt29ujWI04ctEUMGrxXHHzYyY0L1zZlu0F7xpln/SF++fMv5OG7gHSTJo6PJ8f9M154/rF44/UX4u2334h/vD6n8W5WG/bYMLbebOs4eM+h8Zljh62zc2vwjvvE938wKr5z3kcLWj9QegQqAABVom3bdvH1cy5scvvChfPjwj+cHbfefGnjGihjpq++/e3pb8f45zOPR+O6a34Tuw85NM779uXRq3f/rPMd9dHPxz9uuzyee/bhXH8r0CyT33wl7rrj/+Keu67MumDykvfvAD7l7SmNj4efuD/uu/pHceDBn2wMBJu6fGivfY6JE076aoy+/g/5/haAEuaSHwCAKnH4kZ+JPn03zbptwYK58fX/t3/cctMlzV5Qduzjd8cXP7tLvPHGS+tcqwUK7eknx8S3zzk6hn9qQIy84idJd5/KnP/33nN147k94dV/Nznus1/8cXTu0j1HFQPlSKACAFBFgUpTfvXzL8bLLz2ZPOfsWdPjO+ceE0uWLM66fY8hh0fXbhskzwst8ewzD8WZZ+wXZ331wHj0kdtbNde770yOb51zVOOf2XTu3C2OO/70Vu0DKG8CFQCAKpBZRHO77ffMui0TpNz3z2taPPeUya/GrTddnHVbbV1d7LTz/i2eG5rrt786ozFMyYQquTL93Snxh9+e2eT2Qw77r5ztCyg/AhUAgCqw+ebbN4Yb2dx/33Wtnv++e69tet9bDGr1/LA+L77wRF7mffD+v8crLz/V5Lm9wYb98rJfoPQJVAAAqkBTC8dmPP/cI62eP7NQbeZOQNn07Nm31fNDMT30wN+b3LbNNrsUtBagdAhUAACqQLt2HZvcNmvmO62ef3lDQ8ydMyPrtrq27Vo9PxTTukLHvv02L2gtQOlw22T4kGGzZud3B7UJY2flsQ5aL/svYYFyMz9hbH3i3KOj9aZExLIczJO5JfLUeU1vzNweeVozf1LMNm6V5dmfnjdt5rpfl+KWzIIwBX7vy1Xq91joczxzSubqvGipuizncJaaZrzUdKGdlnfN3fcxK0f/dlTLOQ5FpkMFAKAKzJ7xbpPbum/Qu9Xzt6mtjS7de2bdNv3tTDIE5WtpE3exyqipqSloLUDpEKgAAFSBV8c/HcuWLs26bfudP9Lq+bffec+orc3eivncuIdbPT8UU89eTa8DNH9unjucgZIlUAEAqAKLFi6IF555LOu2oUd9vNXzDz3qE1mff3falHhlfPY7pEC52GZQ0wvPTp08saC1AKVDoAIAUCVuGXVx1ucHDN4tDjw6eyDSHBttumV8dNiXsm67ceQFjQvWQjnbc+jRTW575XmBIVQrgQoAQJW477ZrYtIr47Nu+8ZPL42tt985ec6u3XvGzy69Ndq177DWtsmTXokbrvhdi2qFUtG3/+ax694HZ92W+f/TjHeLvbIuUCwCFQCAKpFZQ+UX3/xs1rVU6rt0jd+NeiCO+vjnmr3I5q57HxQX3/xkbLb1dmttW7hgfvzs7FNi8aKFOakdiuXkL3+ryfWB7rv16oLXA5QOt00GAKgiLzzzePzsG6fEd0dcGbV1q/8o2Klzlzj355fFyad/J+4a/deoefqhePG1F2Pm7JnRsLwhunfpHtv12yIG7bp3HPTRYbHdTkOy7mPh/HnxvS8f17gvKGdbDdwxjvr457NuW7J4Udxy9SUFrwkoHQIVAIAqc99t1zaGHt/8xRXRfYNea23feLOt4rNn/Sg+24K5X3p2bPz0rP+KNye+nJNaoVgytwI/73//slbwuMrNV10UM6e/XfC6gNLhkh8AgCr06Jjb4/NH79j4oXDJ4sWtnu/Ffz8RPzrzk3H68UOEKVSEL557fgwYvGvWbbPeezf++vsfFrwmoLQIVAAAqlRmMc3ffP/0OHnoFnHBj78e706dnDxHJozJfLD85ueObOx8WbFiRV5qhULa55Bj4xOf/0aT23//w6/EvDmzCloTUHpc8kPF++6gKB3Z1zPLjYOyX9+b1b2X5bGQMpVy/DLuLp1jOOaNYlcAVWJ+4vj6KJs7mJzwmTNjv8NPiF79+ie/vl379vGZM/8nTjnju/HgnaNj5B9/Eq+99GyUvPo8vvcJtst+J2sKZcDqXy5dHvFux0Fx3i9HRps22X/3PGrUqPifP1ybt5Juyn4jrrJ1437FrgDyR6BCxZs/L6pD54TkaHY+C6mC45dRLedVHs17qPWXGFS7ajiGB25W7AoqV+eu3eP0b/8qDjv+01HXtm2r58usMzH06E/E/keeFH//vz/Exf97XixdsiQntUKh9OrZK2655pbo2rVr1u0vv/xynHbaaQWvCyhNAhUAgCqz/S4fif/+/TXRZ6NNs27P3Op43L/uiRueGBMvTXwp3pv1Xixesjg26L5BHNxr49hht31j9/0Oy/r6zG/1Tzz1a7HD7vvFuZ85NObMmlGA7whar75Tfdx+2e2xxRZbZN0+e/bsOPHEE2PePL9VAVYSqAAAVJHBu+0dv/jLndGxvvNa2xqWLYvrr/htXHPJL2Pme+/EmCw/KS5bFnHnDX9tvAPKwR8dFp//xk+zBiuZxTx/+de74+z/OjDmz5uTr28HcqJt27bx9wv+HrvvsHvW7YsWLYrjjz8+nnvuuYLXBpQui9ICAFSJ3v02ifP/fFvWMGX2zPfi3FMPi4vOP7cxTFmf5Q0NcfeNf4svHbdbPPnIvVnHZEKVM39wQU5qh3zJdFVd9aur4tB9Ds26fdmyZXHyySfHfffdV/DagNImUAEAqBLn/vyyxrVT1pRZ6+T7X/5YPPVI+gfG2TOmx3e/+NF4dfzTWbcfdvzwGHLAES2qFwrh0p9cGicdcVLWbcuXL48vfvGL8fe//73gdQGlT6ACAFAFdtvnkNh93+y/gf/bn34az459qMVzL1q4IH741U80XjKUzclf/naL54Z8+s13fhOfO/FzTW4/66yz4oorrihoTUD5EKgAAFSBzK2Rs5k7e2Zc/5fftHr+yZNeibtv+lvWbTsN2T82H5B4NzXIsx/96Efx9c98vcnt3//+9+P3v/99QWsCyotABQCgwrVt177J7pRH7r0lFsybm5P9ZNZUacpuex+ck31ALpx77rmNgUlTfvnLX8ZPfvKTgtYElB+BCgBAhRu44x7Rrn2HrNuaWlC2JZ4b969Ysnhx1m2Ddt07Z/uB1jjjjDPiF7/4RZPbL7zwwjjvvPMKWhNQngQqAAAVbuPNtm5y25RJr+ZsP0sWL4rpb0/Jum3DPhvnbD/QUp/+9KfjD3/4Q5PbR944sjFwAWgOgQoAQIXr2mODJrfNmfVeTvfV1HxduzddAxTCSSedFJdddlnjbZKzueHOG+LU804teF1A+aordgEAAEVTn8e5T8jBHE9FRPYraJK02yD75T6NNoyI+U1sm57lub7r3teKuhVZn2/Trna9r22Wj2bSmSzPj47SOU+aOp4UzVFHHRVXXnll1NVl//hzx4N3xLBvDGu8TTJAc+lQAQCocIsXL2xyW9duue0c6d69V9bnFy2SMlAcQ4cOjeuvvz7atWuXdfv9j98fx/+/42Pp0qUFrw0obwIVAIAKN2vmO01u23jjrXK2n3btOsQGG26Uddt709/K2X6gufbcc8+4+eabo2PHjlm3P/bMY3HMl4+JRYsXFbw2oPwJVAAAKtxbUyY0uW2X3Q7K2X523Hm/aNeufdZtUybnbvFbaI4dd9wxbr/99ujSpUvW7U8//XQc8YUjYt78eQWvDagMAhUAgAr36itPx7Jl2S9n2Gufj0anTtk/cKY69PDhTW578YXHc7IPaI5tttkm7rrrrujZs2fW7S+++GIcdthhMWvOrILXBlQOgQoAQBWsofL8sw9n3da1a8848RNfa/U+Nt1sYBx8yLCs2xoaGmLcE/e0eh/QHJtsskncc8890adPn6zbX3vttTj44IPj3XffLXhtQGURqAAAVIF777m6yW2nfOZ7MXiHvVs8d8dOneN/fnxt1DZxB5Wnnrw3Zq5jHRfIld69ezeGKZtuumnW7ZMnT24MU956y5o+QOsJVAAAqsBdd/xfzJ41vYnFZNvHj8+/MXbaef8W3dXn/F/cGltutUOTY6696lfJ80Kqbt26NV7mM2DAgKzb33777cYwZdKkSQWvDahM2X+NAABARVm0aEFcfun346xzL8y6vXuPXvGr390T1476dVx39YiYNWvdl0O0qa2NQw/7r/j8aT+NXr37Nznu8UfviCcev6vV9cO6ZG6JnFmAdqeddsq6fcmSJXHWWWdF27ZtY9CgQR9s2HyNgQ0R0SFt3/PnzxfSQJUSqAAAVIlbbro49t732NhzryOzbq+raxsnD/9WnPDxM2Pc2HvihgfHxIuvvRgzZs+IJUuXRM9uPeOQbfrHjjvuF3vsefg6g5SMzGU+vzz/83n6buAD/fr1i7333nudgctVV12Vl32PGTMmDjzwwLzMDZQ2gQoAQJVYsWJF/PgHw+LXv7snth24e5PjOnToFPvse2zjo6XmzZsd3/3msTF9urUqAKhM1lABAKgi8+fNjm+ceXD88+5RedvHpInPx9fO2C9eeP6xvO0DAIpNhwoAUDnqi11AeZg/f0785Acnx6MP3xpf+frvo1u3DXIyb8OyZXHT3/8UF/3pvFi6ZHEU1AmJ40fm8bxyHgJUBYEKAECVuueuq+KBMaPjkMNOjuNO+H8xYNtdWzRPZq2U22/5c9z09wvj3Xcm57xOAChFAhUAgCq2ZMmiuP3Wyxsf/TbaIrYf9JHGx1Zb7xR1nTeM7l27R/cu3aNtXduYPW92LJo3M+bNnRlTprwa459/NMY/92i8+srT0dCwrNjfClXs9ddfj5qamvQXDshyl58JuaoKqHQCFQAAGk19a2LjY9X6KmOmrz1m6IaFrwsASpFFaQEAAAASCVQAAAAAEglUAAAAABIJVAAAAAASCVQAAAAAEglUAAAAABIJVAAAAAAS1aW+AACgYOrzPP8JCWNHJ849MmHs8MS5af37U5+n86QltQBQlnSoAAAAACQSqAAAAAAkEqgAAAAAJBKoAACUqDZ+UltLrWMCQInwnyQAgBLVoUOxKyg9HR0TAEqEQAUAoETVdyx2BaWlfbuIOveoBKBECFQAAEpU1y7FrqC0OB4AlBKBCgBAiRqwVbErKC2OBwClRKACAFCiBm1b7ApKi+MBQCkRqAAAlKiN+0V061rsKkpDbW3EtlsXuwoA+IBABQCghO26Y7ErKA3bbRPRySK9AJSQmhsvGbGi2EUA0HIfO+3sYpcAefNC6ul9QuTP6DzOPX8dm5ZG/OCBiHlLPvRk/yiIMdPXfm7ohlE401b+UVsT8b2DIvrmclHaEjlXthuRxzpYvwFrfN0QEROKVEuFuvESJzmVS4cKAEAJq28b8cntI2pqomodPTDHYQoA5IBABQCgxO3eL+K/BldnqHL4NhFHWowWgBJUV+wCAABYv336R3RvH3HN+Ih3o/J16Rxx/K4Re21a7EoAIDuBCgBAmRjUK+L7+0Y8tHXEv1+ImDApYunSqBht2kRsvmnE4G0jDtg7otM/il0RADRNoAIAlKzrnk18QduW76tNTUSHDivvJNO1c8Q2W0Z0LcF1O9rWRhy478rHkqURr0yIeO2NiPkLIhYsiFi4OCJydMuBMa+t/dzgLXMzd2SOd/uIju8f8836r7wtcqnfyWfx4oiXX4uYOStiwcKIhYsilmUWMv2w1POW4tloja8ziz9blBZoJoEKAFCy7p2Qu7vlpMqsV9K/X8T220bsskPEZlF62rWNGDRw5SMfLrhn7ef+3yFRdd6bGTH26YjxL6/sCmpYM0Bp4u5ElIGhWf4NebhItQBlR6ACAJDFihURb7618nHnfRF7to04YVBE1w7FroxCyXQAZd77u8ZELFtW7GoAKDUCFQCAZnjszYgX3404a5+IPiV4KRC5lbmU5w9/jpj4RrErAaBUuW0yAEAzzV4U8Zt/Rby3oNiVkO/OFGEKAOsjUAEASAxVrn6m2FWQT3ePEaYAsH4u+QEAaI6+H/z1ucyNXLaL2GG7dYwfnTB3fWItKXOfEKUjpe5UJ+RuAdo7x+RmLgAqmw4VAIAWeHRssSsgH8b9O2Lp0mJXAUA5EKgAALTAC69GLF9e7CrItfEvFbsCAMqFQAUAoAUWLrTORqVZvDhiwqRiVwFAubCGCgBAC734asRWmxe7CnLl1YkRy5YVuwpabEBEnNTKOTLrGX0nYXzmfPljRMxv5X6BsiRQAQBooVmzi10BuTTT+1neXomIGasvIN0i7RLGPilMgWrmkh8AgBZasKDYFZBLCxYWuwJaZUVE3F/A/WW6U/5VwP0BJUegAgDQQvN9AK8oApUK8GJETCvQvjJ3+ppboH0BJUmgAgDQQg0Nxa6AXPJ+VoBCdanoTgEEKgAAQEUpRJeK7hRAoAIAAFSUfHep6E4B3ucuPwBAwfXq1St69+693nGbb5I48QbrH7Jo0fyYNnVS4sSQG/022SK2HLhjbDFgcPTrv0V8p8emsckmm0T37t2jU6dOjY+FCxfGrFmzYvbs2TFlypQYN25cjB07Nh5++OF4++23i/0tlFeXSmvv+JON7hTgfXUx8uwoGcNHNH9sKdVdrlKOd4Zj3jqOd+H5NwVK1hlnnBE/+MEPirLvp58cE2d99cD87+iEhLEjE+euTxg7Oo91p84deaylBHXoVB+Dd907dth93xi8+74xcIc9olPnLut9XZcuXRofmaBl8ODBcfjhhzc+v2zZsrjjjjvisssui1tuuSUaLPqy/i6VT+Z4Xt0p6UrpZyw/GxbW8Mr//KNDBQAA8uD44V+J0877ec7mq6uri2OOOabx8cwzz8QXv/jFeOKJJ3I2f8XJR5eK7hTgQ6yhAgBUlXnzZhW7BGi1nXbaKR555JH43//936ipqSl2OdWxloruFGANAhUAoKrce8/VxS4BcqK2tjbOO++8uOqqq4Qqhbjjj+4UYA0u+QEAqsbcOTPjoQdvLHYZVLmFC+bHy8+NizdfezHue+KlmDhxYuMCtHPmzGlcJ6Vbt26xwQYbxI477hhDhgyJgw8+ONq1a9fkfJ/61KfizTffbAxXyNNaKrpTgCwEKgBAwf3whz9sfKzP0C0TJ+4bceDBn4z//lH2LpR77xkVS5csTpwUWmfZ0qXxzOP3x+MP3BHPPvFgvPz8k9GwLPMJPWLMa02/bvTolav+brjhhvGVr3wlvvnNb0aHDh2yjv3GN74RN998czz00EP5+SaqfS0V3SlAFgIVAKCiHHn0Z5vc9o/b/lLQWqhur45/Ks4/59Px8D9viXlzWr52z/Tp0xvvinX11VfHXXfd1Xj3nzW1adOmcT2VffbZp5VVV6DWdqnoTgGaYA0VAKBibNhr49h190Oybpv42nPx0ouZXzNDYTzx4F1x199HtipM+bAXX3wxDjzwwJg7N3urxN577914m2VyvJaK7hSgCQIVAKBiHH7kpxsX6sxGdwqVYMKECfGTn/ykye2ZWyqTwzv+6E4B1kGgAgBUjMOPPDXr88uWLY177vxbweuBfLjssssaF6/NZo899ih4PRXdpaI7BVgHgQoAUBEG77ZPbLLpgKzbHnvk9pg5852C1wT58N5778XTTz+dddvmm29e8HoqtktFdwqwHhalBQAqwhEnZu9OKYvLfYYnjh+ZpzrWnLtfjved+n3SpClTpsTuu+++1vNdunQpSj0Veccf3SnAeuhQAQDKXvsOHWPoUZ/Iui3TmfLow7cVvCbIp4ULF2Z9fsGCBQWvpSK7VHSnAM0gUAEAyt4BR54U9V26Zt2WWTuloSH7ehOlaOnyiOWZD32s05LlUdV69+6d9fl333234LVU5FoqulOAZhCoAABl7/ByvtxnDW8sjDjxsYi73xGsZPP4zIhTx0U8OD2qVuZOVjvvvHPWbePGjSt4PRXXpaI7BWgmgQoAUNb6bLxZ7Lzn0KzbXnpxbEx87bkoNy/Oizjz34KVbEHKZ8ZFPDYzqtqhhx4aPXv2zLrtn//8Z8HrqbguFd0pQDNZlBYAKGuHn/CZaNMm+++I7iiz7pSmgpWBnSPO2DLi4F4RbWoKt//aFRENBdxfU0HKn14ToqxSV1cXv/zlL7Nue+WVV+Luu+8ueE1l3aXyyTWe150CJNChAgCUfaCSzZLFi+Keu6+KSrBWx0qB9vuZ+at/fdCiAu1YR0qTYcrVV18dgwcPzrr9e9/7XsFrqrguFd0pQAKBCgBQtnb+yNDYaNMts27710M3xby5s6KS/CdY2TDi7vb5D1barnGpUbsCXHokSMluzz33jEcffTROPPHErNuvuuqquPbaawteV0WtpaI7BUjkkh8AoGwdUUGL0aZ4sW3EmT0jBi6NOGNuxMGL8/Nbso8uithh6Qdf985jguPSnpVqamqiS5cu0b179xg4cGDstttucdJJJ8Wuu+7a5GtuvfXWOPXUpv+/QDO6VPrqTgHSCVQAgLLUsb5z7H/ESVm3vfvO5Bj3ROWvJZHvYGWrZSsf+VStQcoXzz0/Tv7yt1o1x7Jly+L888+PH/7wh9HQ0JCz2qqySyXT+KM7BUgkUAEAytKBR30iOnaqz7rtrjv+L5YvL9RKI9XTsZLrIOWPr638kzRLly6N6667Ln7605/G+PHji11OZXSp3KY7BUgnUAEAytLh67jc547br4hqVA7BiiCldW666aY488wz44033ih2KZXVpfJUsYsAylGp/TcWAGC9Nt5869hxj/2ybnv2mYdi8puvRDVbFawUavHa5ni83cqFZjMPYUrLHXfccfHyyy/H9ddfH0OGDCl2OQBVTaACAFTUYrR33F65i9GWY7DSGKT0jPjMBoKUXGnfvn3j3X4ee+yxxjv79OjRo9glAVQll/wAAGV3F5RDPzY867aFC+fHffe6dWwpXAqUCVL+2Dni8fZ53lGZuv7y38TdN/0tnnhz9efbtWvXGJBkHjvttFPj7ZIPOOCAxhAlm49//OOx1157xWGHHRYvvPBCYYoHoJFABQAKZdOI6BQRG0ZEzyg/b0fEpMLu8sUsn/oP2PeQ6LNR5mCu7Za7r4+n3pkXhfLWexEzcrwm6LRFUdbBSqGClN9OiLh3em7nnPRWxFu5OH2ac1BnvtP4mJZtIdS3Vv5xw0M3RPwxoteGveILJ38hvvmVb0a3rt3WGt6/f/+4d8y9sf/H9o9XXsvx5W4bZ3YQ5Wfe+8cxc5eqV4tdDFCpBCoAUCgHR8RmUb5eznwILOwup2V57tgTmr7c50/X/SWvgcSaMh+GX37/w285yUewUuiOlFfnr3zk1KyIyMX5k3Iw185H1vLu0nfj/L+eH1fefWWM/MXI2H+P/dca07d337jmz9fEkI8Pabydcs5sERE7RPnKBCu/KnYRQKWyhgoAUDa6dekWxx96fNZtr735Wtz/+P0Fr6mcrQpWTtgw4qm2LZtjUu2H1khxeU9evfHWG3H45w+PB554IOv2XbbfJc79/LkFrwugWglUAICy8amjPxUdO3TMuu2Kv1fnrZJba7NlEZ+dH7HD0ha+viHic5nXL8l1ZWSzaPGiOO6M42L6zOzXO339M1+Pdm3bFbwugGokUAGAQsmslTCj2EWUt1OPz365z/Lly+Ovf/9rwesp9yDl57Mibn034riFLb8OvCazrs3iiGvei7hohmClEGbNmRX/8/v/ybqt9wa9m+ziqjqZf29nF7sIoJJZQwUACuX6YhdQfoZu+cHfN91qYHxk549kHffUI/fGlm+8EVv2jYLaevOIbxyS2zknzI845pHIa5By+ryIo1sRoqwrWNl/ccQD7Veup/JsHhslLtgx4uDeuZ3zhkUR90zP0+I/TRjzWst28bcRf4vffPs3jXcFWtOBAw+Ma357TeRs7aQbcjMVQKXRoQIAlIUjT/psk9vuuP4vBa2lmjtS1kfHSmHMmTMnHn744azbhgwZUvB6AKqRQAUAKHlt2rSJQ447Jeu2eXNnxwN3ji54TeWiUEHKmgQr+ffaa9nbW/r2LXCrFkCVcskPAFDyhux/RGzYZ6Os2+679epYsriA90ouE5nFYk9fEnH00oi6zK/Q6pv5whMSdjK6mcFKROy/KOKBZRF/bB/xbG3CPmjSO++8k/X5nj17FrwWgGokUAGA1srcKnZxsYuobEes43Kff7jcp+kgJUpHY7CyLGL/ZREP1AlWcqFDhw5NLtIMQP6V0n9nAaA8HR0RD6ctREnzde3eM/Y66KNZt73+6gvxwtOPFbymUlSqQcqaBCu506dPnybXVwEg/0r5v7cAUPo2jIgdIiJzo42ri11MZTr42JOjXftMG9Da7rhBd0q5BClrEqy03uDBg7M+P2nSpILXAlCNyum/uwBQevZ//5PhwMxKkLpU8uGIE0/N+nzDsmVx199HRrUqRJBy7ZSIm6d+8PWePSK+ulVu9yFYaZnNNtssdtghk+au7dlnny14PQDVSKACAK3tTlllqC6VXNty2x1iwODdsm57/IE7Ysa71ZdgbdYp4vT3CtOR8tbCiHGzPvi6V6YTK08EK2nOOOOMJreNGTOmoLUAVCu3TQaA1nanrLKqS4WCLEZ7R5UtRpsJUn4+KOLWj0QcV6DLe/69xlIcT87O/z5XBSvXzI+4aOeIHbrmf5/lZsCAAfG1r30t67aFCxfGLbfcUvCaAKqRQAUActGd8uEuFXKirq4uDjnuv7Jumz1jejx87y3VF6T0e/8WyAXyyIzVv36ngHezagxWNoy4Zo/yDFY+cmBmterc23jjjeP222+P9k2sK3TllVdalBagQAQqAJCL7pRVdKnkzNFHHx09Nuiddds9N18Zy5YujUpWzCCllNTUlGew8t0Rf4s/3/p07HPIsTmb88ADD4wHH3wwttoq+0I2CxYsiJ/85Cc52x8A62YNFQDIVXfKKtZSyYnPfrbpy33+UcGX+3SuXRmkHN2nekOUdQUr+28Q8cB7+V3PJVe22m6n+MnFN8U7U9+M+2+/Lu677Zp44ZnHWxSkfOlLX4pPfvKT6xz37W9/O15//fVWVAxACoEKAOSqO2UVd/xptV69esVRRx2Vddsrzz8VE154JipVnw4rO1JYd7BSTnr32yQ+/vmzGx/z5syKV8Y/Fa8+/1RMeuX56P7SjJg1a1bjI3OZW9euXaNbt26x7bbbxs477xx77713bLLJJuvdxxVXXBG///3vC/L9ALCSQAUActmdsooulVY55ZRTom3btlm33XFD5XanUPk6d+0eu3zkwMZHrlx++eVx2mmn5Ww+AJqnLoaPiLJUrnWXM8e8sBzvwirn4/3g2cWuoLqsrztlFV0qrXLqqadmfX7J4sVxz01XRsUZnce5T4jqOC7l/H22UOaOPueee2788Y9/LHYpUHk/Y5Vr3eVsePkdc1fmAkCuu1NWccefFtl1111jxx13zLrtkXtviTmz1rj1DJSgd6dNztvcDQ0Ncc0118T2228vTAEoIpf8AECuu1NW0aWS88Vo77jhioLWAi31uSN3iM232T72HHpU7LHf4TFwxyFR36V1tyh67bXX4rrrrotLLrmk8e8AFJdABQDy0Z2yirVUkn31q19tfGQM3bLY1UDLTXplfOPjmkt/FTU1NbHZNtvHdjsOiU23Ghj9Ntky+m2yRXTs1js6d+4c9fX1UVtbG4sXL4558+bFO++8E5MnT44XX3wxnnnmmXjooYfi1VdfLfa3BMCHCFQAIB/dKavoUgEiYsWKFTHp5ecbHx82RqMJQNmyhgoA5Ks7ZRVrqQAAVByBCgDkqztlzS4VAAAqhkAFAPLZnbKKLhUAgIoiUAGAfHanrKJLBQCgoghUACDf3Smr6FIBAKgYAhUAyHd3yiq6VAAAKoZABQAK0Z2yii4VAICKUFfsAgCgKrpT1uxSmZaHuUk/rikdQ5OzPLcgIkY2Mb4+8ueEKA2pdTR1rCIHx3B0mR5DAMqWDhUAKFR3yiq6VAAAyp5ABQAK1Z2yirVUAADKnkAFAArZnbKKLpWKkM/cDQAobQIVAChkd8oqulQqQvvaYldALrVvV+wKACgnAhUAKHR3yiq6VMpep7bFroBcqu9U7AoAKCcCFQAodHfKKrpUyp5ApbJ0EqgAkMBtkwEgI3PpxoyIuD/hNXtHxJofqFNen9HFLZTL2SZdi10BubTJRsWuAIByIlABgIyGiBjTgjBk1zWeuy+HNVHyts9cJkbF2KhvRI/uETNnFbsSAMqBS34AAFpg4y4R3TsUuwpybbttil0BAOVCoAIA0AKDehW7AvJhcGZtIwBohroYeXZUheEjmj+2Wo5JKsewtHl/Cnf8MhxDqAyTW/ayDnURB22ewzpOiOowPHH8yISx9Ylzj87+9E4rIvoviJg8J3E+oLp/ZvKzeFUeQx0qAACJPrpNRLf2xa6CfGhTE/GpnQp7wy8AypNABQAgwf6bRhy4WbGrIJ+22iDiv3YRqgCwbu7yAwDQzM6FQ7eIOG5ARI1P2hVvn80iamsirvl3xKJlxa4GgFIkUAEAWIdMeDKgZ8SJAyM26Vrsaiikj2waMbBXxI3jI8ZNiVi2vNgVAVBKBCoA0FILI2J2sYsg19rWRnRpF7FNz4jtN1z56NwuSt6SJRHzF0YsXhyxYkWOJs1yfk99O3dBVft2EZ06RrQv4fVouneMOHW3iJN3inh5esT4dyJeeDdi5oKIxQ3Frg6AYhKoAEBL/TsiXi92EZXtZ4fneQfzV/+A36ltRLvaKHmZwOTNtyKefzHihVciJr0ZsXRpHnY0fe2nfvRY7ndTWxuxcb+I7QdEDNo2YotNVz5XStrVRQzuu/KxSqZjZeHS1nWu7H1hTsoDoAgEKgBAyerRMc87KLNLODJByiNjI26+M2J2Bd3Wt6Eh4o3JKx933BvRsWPE4UMjDl4eUVfCt1DI1NalhLtrAMgvgQoAQBmYNz/ior9GTJgUFW/hwogb/xHxyMyI03eL6FNf7IoAYG0lnPkDALAqTPntJdURpnzY2/MjfvP4yj8BoNQIVAAAStxfro6YMjWq0uxFEReOc4cdAEqPQAUAoIQ99WzE+JeiqmU6VP5ZZd05AJQ+a6gAAKUr9VKP1LU28rk2xwm5meYf90b16v/BX+9cHnHIyeu4+8/IEnrvXaIEUBV0qAAAlKg5cyMmv1XsKkpnodqJbxS7CgD4gEAFAKBEjX955a2S+eB4AECpEKgAAJSo56t87ZQ1CVQAKCUCFQCAElWtd/ZpisufACglAhUAgBK1YGGxKygtDQ0RixcXuwoAWEmgAgBQogQqa3NMACgVAhUAgBKUWYx26dJiV1F6Fi8pdgUAsJJABQCAsuGuRwCUCoEKAAAAQKK61BcAACv16N4jDjrsoDhgjwNiu622i6033Tq6d+4e9fX1sXTp0pg/f3689957MWHChMbHuHHj4pFHHolXXnml2KVDi9TU1MQFF/8rBg3eq8kxTz85Js766oEFrQsAikGgAgCJDjzwwPh//+//xbHHHhtt27bNOibzfKdOnaJXr14xcODA1bZNnTo1brvttrj55pvjlltuKVDVVWJ+4vj6PNVRoc44+Yx1hilFVV9C5xUAVUGgAgDNNGjQoPjNb34Thx56aKvm6devX3zhC1+IU045JTp27Jiz+iCfNuq9Ufzs7J8VuwwAKBnWUAGAZvjKV74SY8eObXWYAuXqgv++ILp27lrsMgCgZOhQAYB1aNOmTVx44YVx2mmnFbsUKJrjDz2+8QEAfECgAgDrMHLkyDj55JPXOebJ55+Mex65J/790r/j9Udfj3nz5kW7du2iR48e0adPn9hll11it912iyFDhkT79u0LVjvkQpf6LvGH7/+h2GUAQMkRqABAE/73f/+3yTBl+fLlcdXoq+Jnl/8sXpjwwgcbXl577P/93/81/tmlS5c46qij4hOf+ETjgrZQDn5+zs9j4z4br/bclCkTYs6s6bHdoD2LVhcAFJs1VAAgi+OPPz7OO++8rNumTJkSBx10UAz/yvDVw5T1mDt3blxzzTVx4oknxlZbbRW//vWvc1gx5N5eu+wVX/7Ul9d6/vcjvhKLFy8sSk0AUCoEKgCwhr59+8Yll1ySdduECRNi7733jvvvv79V+3jjjTfie9/7XqvmgHyqra2LS350SeM6Qh825t7r4vFH7yhaXQBQKgQqAJDlUp8NN9xwrednzpwZRx55ZGMYApXu5OHfisEDBq/23Jx5c+KC332taDUBQCkRqADAh+y6665xyimnZN321a9+NV555ZWC1wSF1n+TbeKUT393ree//7vvx3vTpxalJgAoNQIVAPiQb33rW2td4pDxr3/9K6688sqi1ASFdvZ5F0e79h1We27cc+Pigr9dULSaAKDUCFQA4H2bbrpp42K02fzoRz8qeD1QDEcd87nYZdcDV3uuoaEhvvyDLzfe3QoAWMltkwHgfcOHD4+6urX/0zhx4sS46667ilITeTY/YWx94tyjo3VWRMS0KKgeG/SOL53+y7Wev+jqi2Lss2NXfrGqpiVNTLIkz3Vn1sPtUuD3HgCy0KECAO/71Kc+lfX566+/vuC1QDF85b9/F12791ztuanvTI3vjPhO0WoCgFIlUAGAiNhss81i8ODV72iyyh13uEUslW/IAUfEQcesHSqe/fOzG+/uAwCsTqACABFx4IGrrxnx4bUjHnvssYLXA4XUoWOnOOtHF671/F0P3RVX33Z1UWoCgFJnDRUAiIh999036/Mvv/xyzJ+/7sUW2rdrH7169or6TvWxeMnimDlzZsyePTtPlULufe6sH0ff/puv9tySxYvijB+eUbSaAKDUCVQAICJ22GGHrM+/+uqrWZ8fOnRofPwzH4+DDzg4tt5066itrV1t+6xZs+KZZ56Jhx56KP7+97/HuHHj8lI3tNaAwbvGCZ85c63nr7zw/JjwxoSi1AQA5cAlPwAQEdttt13W5ydNmrTa1wcffHA89dRTcd9998UZp54R226x7VphSkb37t3jgAMOiO9+97sxduzYxkDlhBNOyFv90BJt2rSJb/z00qhd4+5Wb7z2Uoy6+OdFqwsAyoFABYCq16tXr+jSJft9WKdPn974Z7t27eLiiy+Oe+65J3beeefkfey6665xww03xJ133hl9+vRpdc2QCyd97qzGDpU1/e5/zoilS5q6LzIAkCFQAaDq9e3bt8ltM2bMiE6dOsVdd90Vp512Wqv3ddhhh8WTTz7Z5CVGUCiZNVNO/doP13r+npuujCcfvrcoNQFAORGoAFD11hWoLF26tLGzJHP5Tq5stNFGMWbMmBg4cGDO5oRUZ/34wujYqX615+bOnhl/+unZRasJAMqJRWkBqHr19at/qPywM888M7bffvu1ns/cxeeam6+Jmx+6Oca/Oj6mTZ8WdbV10Wdun9hll13iuOOOi5NOOinat2+fdd6ePXvGrbfe2jh27ty5Of1+YH0OOfbkGLL/EWs9/+dffSdmvvdOUWoCgHIjUAGg6nXo0KHJbdnClJEjR8Y555wT79S8E9Ft9W1zX53beGeg6667Ln74wx/GH//4xzj00EOzzr3VVlvFr3/965xcSlSptru42BVUnh49esQ13/7NWs8/9thj8Y2fXhwrVnzoyQFrv37Mayv/nLUo+/yZ51eNyYd8zl0MQzeN8rT2WtyUs4ZiFwDlySU/AFS9tm3bNnvsD37wg/j0pz8d77yz/t/iv/LKK3HkkUfG3/72tybHfP7zn7eeCgWVCfF69+692nPLli2LL33pS7FitTQFAFgXgQoAVa+hoXm/mrvssssau05S584EMA8++GCTt6391re+lTQntNTQoUPjs5/97FrP/+EPf4hnnnmmKDUBQLkSqABQ9ZY04/awkydPjrPOOqtF82d+65/5ELtw4cKs20888cTGyzAgnzLr+WRu/Z3t3P7v//7votQEAOVMoAJA1Vu0qInFINb4DX5rFo+dMGFCXHvttU1+0D3iiLUXCIVcyoQmAwasvSjK1772tZg3b15RagKAciZQAaDqzZo1a53bM7dOvvzyy1u9n4suumidl2JAvgwePLhxIeU13XbbbTF69Oii1AQA5U6gAkDVmz59+jq3P/vss+sd0xyPP/54k50Au+22W6vnh2xqamrikksuiXbt2q32/IIFC+IrX/lK0eoCgHInUAGg6q3vjj2Z28nmwvLly2Ps2LFN3kIZ8uH000+Pvfbaa63nf/zjH8ekSZOKUhMAVIK6YhcAAMU2Y8aMxvVRunTpknV7Lj90NjVX9+7do1OnTo1dA5BLhx566FrPTZ06Ne64444YNGjQul+8eZbn3r/LeH19fdaXZJ5vat758+cLcQCoGAIVAIiIiRMnxo477ph128yZMwuyXkvnzp0FKhREv3794qmnnsrL3HvssUc899xzWbeNGTMmDjzwwLzsFwAKzSU/ABAR48ePb3Jb5rfqubKuu6msucYFAAClS6ACABExbty4Jrd17do1Z/tZ11zNuX0zAAClwSU/ALCehWcz65vkSo8ePZpcsHbOnDk52w9QmUZ179b8wbV5LKRvHucmu2lRGhoihs2aXewqoCToUAGAiHj00UebvBxn2223zdl+mprr7bffjiVLluRsPwAA5JdABQAiYunSpXHfffdl3faRj3wkJ/vIrJGy0047Ja/hAq1x/PHHR01NTcse22Z5vL8ts8BsNpnnm5rPgrQAVBKBCgC879prr836/IABA2LLLbds9fyHHHJItG/fvskOGQAAyodABQDeN3r06Jg7d+5az7dp0ya+/OUvt3r+M844o8ltt99+e6vnBwCgcAQqAPC+BQsWxJ///Oes2770pS/FJpts0uK599577zjiiCOybps4cWI88sgjLZ4bAIDCE6gAwIf8+te/znr74sztji+//PLGbpVUnTt3jiuuuCJqa7PfcuMPf/hDrFixokX1AgBQHAIVAPiQKVOmxC9/+csm10C5+uqro66urtnzZW65fPfdd8c222yTdfsbb7wRf/rTn1pcLwAAxSFQAYA1/OxnP4sXX3wx67aPf/zj8a9//SuGDBmy3nmOPvroeOKJJ9Z5l6DTTz89Fi9e3Kp6AQAovOb/ig0AqkTmkp+TTjopHnvssaivr19reyZMyax58sjYR+LmB26O8a+Oj2nTp0VdbV302a5P7LrrrvGxj30sdtxxx3XuJ9MJYzFaAIDyJFABgCyef/75xlDlxhtvzHqr48xaKvsM2afx0RIjR46M8847LweVAgBQDAIVAGjCHXfcEccdd1zjuimZtVByufDtOeeck7P5gCqSfW3rrIbNmp2/Ojrmb2pycMwnp009aoNuaedgwnkIlcwaKgCwDnfeeWfsvvvu8eCDD7Z6rswCtMcee6wwBQCgAuhQAYD1mDBhQuy///6NC9JmwpDmLEj7Ya+99lpccMEFcdFFF8XChQvzVicUUuZW4GPGjFnr+UmTJhWlHgAoNIEKADTTdddd1/jYfvvt48gjj4y9hu4VA7cdGP169YvOnTpHTU1NzJs3L6ZOnRqvvvpq4x1+7rrrrnj88ceLXTrk3F//+tdilwAARSVQAYBE48ePb3zE3yJizcvOXy5SUQAAFJQ1VAAAAAASCVQAAAAAEglUAAAAABIJVAAAAAASCVQAAAAAEglUAAAAABIJVAAAAAAS1aW+AAAAyJHaPM7dL3H81ISxkxPn7p84nta9P6nnVd+EsdMS54YKpkMFAAAAIJFABQAAACCRQAUAAAAgkUAFAAAAIJFABQAAACCRQAUAAAAgkUAFAAAAIJFABQAAACCRQAUAAAAgkUAFAAAAIFFd6gsAAIAi6ZswdnYe66hNHD85YWz/qA5T8zh3vzzODfxHzY2XjFjxwZcAlJuPnXZ2sUuoXn0iotsaz71cpFogHwZkec45nlNDt0gbP2rgmv/oNG3Y7Nml8wG/IWGsQKXggcqobs0/r2JaxLBZzT+3vv7tEWnFQBlxyQ8AAABAIoEKAAAAQCKBCgAAAEAigQoAAABAInf5AYCW2jgiNl/jOQt2UkkGZ3nOOQ4AjQQqANBSmTtR7LjGc6OLVAvkw5rnd4ZzHAAaueQHAAAAIJFABQAAACCRQAUAAAAgkUAFAAAAIJFFaQEAgIh+CWOnJs5dm7+5R6XUHRHDIo9Sj0uKxO8TyD8dKgAAAACJBCoAAAAAiVzyAwBQDdpFRNcczLNh4vj5EbEwB/sFgBIjUAEAqAaZNSy+GBHtWznPVxLH/0mgAkBlcskPAEA1yIQajxV4n89HxDsF3icAFIhABQCgWjwSEYsLuL/7C7gvACgwgQoAQLUoZJeK7hQAKpxABQCgmhSqS0V3CgAVTqACAFBNCtGlojsFgCrgLj8AQNFsvvnmUV9fn/f9PP985hM+q3Wp7JmDO/40RXcKAFVAoAIAFM1f/vKXGDp0aN73U1dXFw0NDXnfT9l1qeyfh7l1p1SHfonjJyfe4jvF1DzWnTJ3qtRagJJTFyPPjpIxfETzx5ZS3eUq5XhnOOat43gXnn9TAArfpaI7hRwYlTC2zQY9mz+4Z8SoGTOaPXxYQh2Uwc9YfjYsrOGV//nHGioAANUoH2up6E4BoIoIVAAAqlWu7/ijOwWAKiJQAQCoVrnsUtGdAkCVEagAACUns1BtTU1Nzh4WpC1Al4ruFACqjEAFAKCa5aJLRXcKAFVIoAIAUO1a26WiOwWAKiRQAQCodq3pUtGdAkCVEqgAANDyLhXdKQBUKYEKAAAt61LRnQJAFROoAADQsi4V3SkAVLG6YhcAAECJdans34yxulNIMKp/wuDJEW169mz++GWJc0fz5x7VMCNh8ohhKd8nUPZ0qAAAkN6lojsFgConUAGASlMTEV2LXQQVvZaK7hQAEKgAQEUFKYMj4oyI2K3YxVDRXSq6UwDAGioAUBFByqCIOCAiekVFqq+vj169ekXbtm1j4cKF8d577zX+SRHWUtGdAgCNBCoA0FIpCyHmQwUHKQcffHAcd9xxse+++8bgwYOjY8eOa43JhCrPPfdcjB07Nu688864//77Y8mSJUWpt2K7VPaMiPZrPK87BQAaCVQAoKVei4ghH/p6ZoH2W8FByirf//731ztmgw02iAMOOKDx8Y1vfKMxYPnLX/4SI0aMiKlTpxakzqrrUtGdAgD/YQ0VAMiVFQVcI+Wkyg1TWioTsJxzzjnx6quvNgYytbW1xS6p8tZS0Z0CAP+hQwUAWurViBjxoa+X52k/VdCRkkudOnWKH/3oR3HMMcfE8ccfH2+99VaxS6qMLhXdKQCwGh0qANCaNVTmfOgxL8fz60hplSFDhsTjjz8eW2+9dbFLKf8ulUW6UwBgTTpUAKDUVHFHyrvvvht33XVXPPXUU/Hss882Xr4ze/bsxkeHDh2iZ8+e0bdv39h7771j//33jyOPPLLx+aZsvPHG8c9//rMxXHn77bcL+r1UVJfKVbpTAGBNAhUAKBVVGqTMmjUr/vrXv8aoUaMaO0pWrMi+GM28efMaH2+88UbjuN/+9rfRp0+f+PrXv974aCpY2XTTTePqq6+Ogw46qMm5WY83il0AAJQegQoAFFuVBikZmbVOHnvssViwYEGLXp/pOvn2t78d11xzTVx77bWxzTbbZB03dOjQ+MIXvhCXXnppKysGWmJY4vhRM2Y0e2ybnj2T5l6eMHdq3UB1sYYKABSLNVLivvvua3GY8mFPP/107LnnnvHSSy81OebHP/5xtG/fvtX7AgDIEKgAQKEJUvJi5syZcfTRR8eMJn77nLk86JRTTil4XQBAZXLJDwBU4qU9B7z/yKWXI2JslLQJMSF+dunP4lff/FXW7Sd/4eS47MHLcrfDzPt4aJSfzB2pnnz/7/+KiMVFrgcAypAOFQDINx0pBXXB3y6Iqe9Mzbpt/933j/pO9QWvqeR0zhyM9x+uggKAFhGoAEA+ZT6sflaQUkiLlyyOW+67Jeu2urq6GLLjkILXBABUHoEKAORT5lKKqzKrr0bEwmIXUz3ufOjOJrcN3HJgQWsBACqTNVQAIN8WRcT9EfFYROwZER+JiI7FLqqyjX91fJPbNu23aUFrKVnPv//n0iLXAQBlSqACAJUYrNz/fldMlXr3vXeb3NZ1WdeVC+zmwsvvL+oKAFQdgQoAFJqOlbybPXt2k9vatWtX0FoAgMokUAGAYhGs5E3Pnj2b3LZoUebAAwC0jkAFAIpNsJJzvXr1alH3ClACaiOGJQwfNXtG8wf3ixjWKWHy7Hdgz834folzAyVHoAIApUKwkjO77bZbk9smTZpU0FoAgMokUAGAUiNYabXDDjusyW3jxzd9ByAAgOYSqABAqRKstHj9lGOOOSbrtsWLF8fYsWMLXhMAUHkEKgBQ6gQrSb71rW9Ft27dsm675557YsmSJQWvCQCoPAIVACgXgpX12meffeLMM89scvvIkSMLWg8AULnaFLsAAKCFwcrvIuK+iFgYFbVobEttu+22ceONN0b79u2zbp84cWJcf/31Od8vAFCdBCoAUK7KOFj585//HE8++WSccMIJOZnvpJNOisceeyw23HDDJsece+650dDQkJP9AQAIVACg3JVpsLLLLrvEDTfcEK+//nr8+te/jo98JHMNU5p99903br755rjuuuuaXDcl45prrmncFwBArlhDBQAqcY2V7lE2Nt100zj77LMbH++99148/fTTjY/nn3++8evZs2c3PjKX8mTu4NOvX7/Ya6+94oADDohtttlmvfOPGzcuPve5zxXkewEAqodABQAqMViZFmVpgw02iIMPPrjxkQuZy4COPPLIWLBgQU7mAwBYxSU/AEBFuvTSSxu7WGbOnFnsUgCAClRz4yUjVhS7CABa7mOnnV3sEiDZU089FTvvvHNe5s5cLnTOOefEP//5z7zMD7k0dIu08aMGNr1W0JqGzZ4dJWNqHufuV6Z1l9D3OWoda1CtZVrEsFnNP7e+/u0RLSsKyoBLfgCAgjvuuOPikEMOiYMOOqixi6R///6tmm/hwoVx++23x+WXX974JwBAvglUAICCe+ONNxrDj8wjo3fv3o13/dlpp51iq622alyodpNNNmlcU6VTp07RsWPHqKmpiUWLFjUuUDt16tSYNGlSPPvss/Hoo4/GAw880LgNAKBQBCoAQNG98847ceeddzY+AADKgUVpAQAAABIJVAAAAAASCVQAAAAAEglUAAAAABIJVAAAAAASCVQAAAAAEglUAAAAABLVpb4AAAAokmkJYzsmzj05YWxt5E+/KB39SugYTi3TYwgVTIcKAAAAQCKBCgAAAEAigQoAAABAIoEKAAAAQCKBCgAAAEAigQoAAABAIoEKAAAAQCKBCgAAAEAigQoAAABAIoEKAAAAQCKBCgAAAECiuhh5dlSF4SOaP7Zajkkqx7C0eX8Kd/wyHEMASt3kKB39ojr0z+P7U5swdmri3Asjf6rlZyY/i1flMdShAgAAAJBIoAIAAACQSKACAAAAkEigAgAAAJBIoAIAAACQSKACAAAAkEigAgAAAJBIoAIAAACQSKACAAAAkEigAgAAAJCoLvUFAABAjjTkce7aPM7dL49zV4v+ieMnl8h735Dn8xbKiA4VAAAAgEQCFQAAAIBEAhUAAACARAIVAAAAgEQCFQAAAIBEAhUAAACARAIVAAAAgEQCFQAAAIBEAhUAAACARAIVAAAAgEQCFQAAAIBEdakvAAAAiqSh+UNHde+WvzryODVNWFga5xXwAR0qAAAAAIkEKgAAAACJBCoAAAAAiQQqAAAAAIkEKgAAAACJBCoAAAAAiQQqAAAAAIkEKgAAAACJBCoAAAAAiQQqAAAAAInqUl8AAACUgYbE8bUJY6clzk1pv/dAiwhUAACgTAybNTt/k6cEKpQ2gQoUhEt+AAAAABIJVAAAAAASCVQAAAAAEglUAAAAABIJVAAAAAASCVQAAAAAEglUAAAAABIJVAAAAAASCVQAAAAAEglUAAAAABLVpb4AgNJy435R+YaPSBs/8ux8VVK+HMPS5v1pPcewtHl/Ws8xhJKjQwUAAAAgkUAFAAAAIJFABQAAACCRQAUAAAAgkUAFAAAAIJFABQAAACCRQAUAAAAgkUAFAAAAIJFABQAAACCRQAUAAAAgkUAFAAAAIJFABQAAACCRQAUAAAAgkUAFAAAAIJFABQAAACCRQAUAAAAgkUAFAAAAIJFABQAAACCRQAUAAAAgkUAFAAAAIJFABQAAACCRQAUAAAAgkUAFAAAAIJFABQAAACCRQAUAAAAgkUAFAAAAIJFABQAAACCRQAUAAAAgkUAFAAAAIJFABQAAACCRQAUAAAAgkUAFAAAAIJFABQAAACCRQAUAAAAgkUAFAAAAIJFABQAAACCRQAUAAAAgkUAFAAAAIJFABQAAACCRQAUAAAAgkUAFAAAAIJFABQAAACCRQAUAAAAgkUAFAAAAIJFABQAAACBRzY2XjFiR+iIAAACAaqZDBQAAACCRQAUAAAAgkUAFAAAAIJFABQAAACCRQAUAAAAgkUAFAAAAIJFABQAAACCRQAUAAAAgkUAFAAAAIJFABQAAACCRQAUAAAAgkUAFAAAAIJFABQAAACCRQAUAAAAgkUAFAAAAIJFABQAAACCRQAUAAAAgkUAFAAAAIJFABQAAACCRQAUAAAAgkUAFAAAAIJFABQAAACBRzY37xYooFcNHNH/syLPzWUl1SDneGY556zjehefflMJyjheec7ywnOOF5xwvLOd4YTnehefflMIaXvnnuA4VAAAAgEQCFQAAAIBEAhUAAACARAIVAAAAgEQCFQAAAIBEAhUAAACARAIVAAAAgEQCFQAAAIBEAhUAAACARAIVAAAAgEQCFQAAAIBEAhUAAACARAIVAAAAgEQCFQAAAIBEAhUAAACARAIVAAAAgEQCFQAAAIBEAhUAAACARAIVAAAAgEQCFQAAAIBEAhUAAACARAIVAAAAgEQCFQAAAIBEAhUAAACARAIVAAAAgEQCFQAAAIBEAhUAAACARAIVAAAAgEQCFQAAAIBEAhUAAACARAIVAAAAgEQCFQAAAIBEAhUAAACARAIVAAAAgEQCFQAAAIBEAhUAAACARAIVAAAAgEQCFQAAAIBEAhUAAACARAIVAAAAgEQCFQAAAIBEAhUAAACARAIVAAAAgEQCFQAAAIBEAhUAAACARAIVAAAAgEQ1N14yYkXqiwAAAACqmQ4VAAAAgEQCFQAAAIBEAhUAAACARAIVAAAAgEQCFQAAAIBEAhUAAACARAIVAAAAgEQCFQAAAIBEAhUAAACARAIVAAAAgEQCFQAAAIBEAhUAAACARAIVAAAAgEQCFQAAAIBEAhUA+P/t2sENgkAURdGxMEuxCQuxCRugQwkdeDORjOGcNQvy/obcAAAAkaACAAAAEAkqAAAAAJGgAgAAABAJKgAAAACRoAIAAAAQCSoAAAAAkaACAAAAEN22+/iMK3i8vn/2/fzlm/wvG67Nfc7b72DDc7nPPBuuzX3m2XBt7jPPhmvzLX7JDf2hAgAAABAJKgAAAACRoAIAAAAQCSoAAAAAkaACAAAAEAkqAAAAAJGgAgAAABAJKgAAAACRoAIAAAAQCSoAAAAAkaACAAAAEAkqAAAAAJGgAgAAABAJKgAAAACRoAIAAAAQCSoAAAAAkaACAAAAEAkqAAAAAJGgAgAAABAJKgAAAACRoAIAAAAQCSoAAAAAkaACAAAAEAkqAAAAAJGgAgAAABAJKgAAAACRoAIAAAAQCSoAAAAAkaACAAAAEAkqAAAAAJGgAgAAABAJKgAAAACRoAIAAAAQCSoAAAAAkaACAAAAEAkqAAAAAJGgAgAAABAJKgAAAACRoAIAAAAQCSoAAAAAkaACAAAAEAkqAAAAAJGgAgAAABAJKgAAAACRoAIAAAAwmh1LyHE72MrULQAAAABJRU5ErkJggg==;" vertex="1" parent="1">
          <mxGeometry x="1610" y="480" width="1000" height="1000" as="geometry" />
        </mxCell>
      </root>
    </mxGraphModel>
  </diagram>
</mxfile>
